<mxfile host="app.diagrams.net" modified="2024-01-12T07:00:10.534Z" agent="Mozilla/5.0 (Windows NT 10.0; Win64; x64) AppleWebKit/537.36 (KHTML, like Gecko) Chrome/120.0.0.0 Safari/537.36" etag="Q27WWHklA6wO-jmOaDbm" version="22.1.18" type="github">
  <diagram id="btaPQqKq-ZGBxPIqBVW9" name="Page-2">
    <mxGraphModel dx="1306" dy="1441" grid="0" gridSize="10" guides="1" tooltips="1" connect="1" arrows="1" fold="1" page="1" pageScale="1" pageWidth="827" pageHeight="1169" math="0" shadow="0">
      <root>
        <mxCell id="0" />
        <mxCell id="1" parent="0" />
        <mxCell id="vE3Ha4qgLlNr06Ze3YW5-9" value="" style="group" parent="1" vertex="1" connectable="0">
          <mxGeometry x="39" y="69" width="783" height="1097" as="geometry" />
        </mxCell>
        <mxCell id="D6CuBKRdVGohJh1ABLe_-131" value="Recipe" style="shape=table;startSize=30;container=1;collapsible=1;childLayout=tableLayout;fixedRows=1;rowLines=0;fontStyle=1;align=center;resizeLast=1;html=1;" parent="vE3Ha4qgLlNr06Ze3YW5-9" vertex="1" collapsed="1">
          <mxGeometry x="243" y="413" width="80" height="30" as="geometry">
            <mxRectangle x="270" y="110" width="180" height="150" as="alternateBounds" />
          </mxGeometry>
        </mxCell>
        <mxCell id="D6CuBKRdVGohJh1ABLe_-132" value="" style="shape=tableRow;horizontal=0;startSize=0;swimlaneHead=0;swimlaneBody=0;fillColor=none;collapsible=0;dropTarget=0;points=[[0,0.5],[1,0.5]];portConstraint=eastwest;top=0;left=0;right=0;bottom=1;" parent="D6CuBKRdVGohJh1ABLe_-131" vertex="1">
          <mxGeometry y="30" width="180" height="30" as="geometry" />
        </mxCell>
        <mxCell id="D6CuBKRdVGohJh1ABLe_-133" value="PK" style="shape=partialRectangle;connectable=0;fillColor=none;top=0;left=0;bottom=0;right=0;fontStyle=1;overflow=hidden;whiteSpace=wrap;html=1;" parent="D6CuBKRdVGohJh1ABLe_-132" vertex="1">
          <mxGeometry width="30" height="30" as="geometry">
            <mxRectangle width="30" height="30" as="alternateBounds" />
          </mxGeometry>
        </mxCell>
        <mxCell id="D6CuBKRdVGohJh1ABLe_-134" value="UniqueID" style="shape=partialRectangle;connectable=0;fillColor=none;top=0;left=0;bottom=0;right=0;align=left;spacingLeft=6;fontStyle=5;overflow=hidden;whiteSpace=wrap;html=1;" parent="D6CuBKRdVGohJh1ABLe_-132" vertex="1">
          <mxGeometry x="30" width="150" height="30" as="geometry">
            <mxRectangle width="150" height="30" as="alternateBounds" />
          </mxGeometry>
        </mxCell>
        <mxCell id="D6CuBKRdVGohJh1ABLe_-135" value="" style="shape=tableRow;horizontal=0;startSize=0;swimlaneHead=0;swimlaneBody=0;fillColor=none;collapsible=0;dropTarget=0;points=[[0,0.5],[1,0.5]];portConstraint=eastwest;top=0;left=0;right=0;bottom=0;" parent="D6CuBKRdVGohJh1ABLe_-131" vertex="1">
          <mxGeometry y="60" width="180" height="30" as="geometry" />
        </mxCell>
        <mxCell id="D6CuBKRdVGohJh1ABLe_-136" value="" style="shape=partialRectangle;connectable=0;fillColor=none;top=0;left=0;bottom=0;right=0;editable=1;overflow=hidden;whiteSpace=wrap;html=1;" parent="D6CuBKRdVGohJh1ABLe_-135" vertex="1">
          <mxGeometry width="30" height="30" as="geometry">
            <mxRectangle width="30" height="30" as="alternateBounds" />
          </mxGeometry>
        </mxCell>
        <mxCell id="D6CuBKRdVGohJh1ABLe_-137" value="Row 1" style="shape=partialRectangle;connectable=0;fillColor=none;top=0;left=0;bottom=0;right=0;align=left;spacingLeft=6;overflow=hidden;whiteSpace=wrap;html=1;" parent="D6CuBKRdVGohJh1ABLe_-135" vertex="1">
          <mxGeometry x="30" width="150" height="30" as="geometry">
            <mxRectangle width="150" height="30" as="alternateBounds" />
          </mxGeometry>
        </mxCell>
        <mxCell id="D6CuBKRdVGohJh1ABLe_-138" value="" style="shape=tableRow;horizontal=0;startSize=0;swimlaneHead=0;swimlaneBody=0;fillColor=none;collapsible=0;dropTarget=0;points=[[0,0.5],[1,0.5]];portConstraint=eastwest;top=0;left=0;right=0;bottom=0;" parent="D6CuBKRdVGohJh1ABLe_-131" vertex="1">
          <mxGeometry y="90" width="180" height="30" as="geometry" />
        </mxCell>
        <mxCell id="D6CuBKRdVGohJh1ABLe_-139" value="" style="shape=partialRectangle;connectable=0;fillColor=none;top=0;left=0;bottom=0;right=0;editable=1;overflow=hidden;whiteSpace=wrap;html=1;" parent="D6CuBKRdVGohJh1ABLe_-138" vertex="1">
          <mxGeometry width="30" height="30" as="geometry">
            <mxRectangle width="30" height="30" as="alternateBounds" />
          </mxGeometry>
        </mxCell>
        <mxCell id="D6CuBKRdVGohJh1ABLe_-140" value="Row 2" style="shape=partialRectangle;connectable=0;fillColor=none;top=0;left=0;bottom=0;right=0;align=left;spacingLeft=6;overflow=hidden;whiteSpace=wrap;html=1;" parent="D6CuBKRdVGohJh1ABLe_-138" vertex="1">
          <mxGeometry x="30" width="150" height="30" as="geometry">
            <mxRectangle width="150" height="30" as="alternateBounds" />
          </mxGeometry>
        </mxCell>
        <mxCell id="D6CuBKRdVGohJh1ABLe_-141" value="" style="shape=tableRow;horizontal=0;startSize=0;swimlaneHead=0;swimlaneBody=0;fillColor=none;collapsible=0;dropTarget=0;points=[[0,0.5],[1,0.5]];portConstraint=eastwest;top=0;left=0;right=0;bottom=0;" parent="D6CuBKRdVGohJh1ABLe_-131" vertex="1">
          <mxGeometry y="120" width="180" height="30" as="geometry" />
        </mxCell>
        <mxCell id="D6CuBKRdVGohJh1ABLe_-142" value="" style="shape=partialRectangle;connectable=0;fillColor=none;top=0;left=0;bottom=0;right=0;editable=1;overflow=hidden;whiteSpace=wrap;html=1;" parent="D6CuBKRdVGohJh1ABLe_-141" vertex="1">
          <mxGeometry width="30" height="30" as="geometry">
            <mxRectangle width="30" height="30" as="alternateBounds" />
          </mxGeometry>
        </mxCell>
        <mxCell id="D6CuBKRdVGohJh1ABLe_-143" value="Row 3" style="shape=partialRectangle;connectable=0;fillColor=none;top=0;left=0;bottom=0;right=0;align=left;spacingLeft=6;overflow=hidden;whiteSpace=wrap;html=1;" parent="D6CuBKRdVGohJh1ABLe_-141" vertex="1">
          <mxGeometry x="30" width="150" height="30" as="geometry">
            <mxRectangle width="150" height="30" as="alternateBounds" />
          </mxGeometry>
        </mxCell>
        <mxCell id="wuyaVqw0lIHpQmKnbZ-E-31" value="" style="group;fillColor=#dae8fc;strokeColor=#6c8ebf;container=0;dashed=1;dashPattern=1 4;" parent="vE3Ha4qgLlNr06Ze3YW5-9" vertex="1" connectable="0">
          <mxGeometry width="783" height="1097" as="geometry" />
        </mxCell>
        <mxCell id="D6CuBKRdVGohJh1ABLe_-39" value="Meal" style="shape=table;startSize=30;container=1;collapsible=1;childLayout=tableLayout;fixedRows=1;rowLines=0;fontStyle=1;align=center;resizeLast=1;html=1;fillColor=#1ba1e2;strokeColor=#006EAF;fontColor=#ffffff;" parent="vE3Ha4qgLlNr06Ze3YW5-9" vertex="1">
          <mxGeometry x="375" width="209" height="240" as="geometry">
            <mxRectangle x="374" y="124" width="160" height="62.22222222222222" as="alternateBounds" />
          </mxGeometry>
        </mxCell>
        <mxCell id="D6CuBKRdVGohJh1ABLe_-40" value="" style="shape=tableRow;horizontal=0;startSize=0;swimlaneHead=0;swimlaneBody=0;fillColor=none;collapsible=0;dropTarget=0;points=[[0,0.5],[1,0.5]];portConstraint=eastwest;top=0;left=0;right=0;bottom=1;" parent="D6CuBKRdVGohJh1ABLe_-39" vertex="1">
          <mxGeometry y="30" width="209" height="30" as="geometry" />
        </mxCell>
        <mxCell id="D6CuBKRdVGohJh1ABLe_-41" value="PK" style="shape=partialRectangle;connectable=0;fillColor=none;top=0;left=0;bottom=0;right=0;fontStyle=1;overflow=hidden;whiteSpace=wrap;html=1;" parent="D6CuBKRdVGohJh1ABLe_-40" vertex="1">
          <mxGeometry width="30" height="30" as="geometry">
            <mxRectangle width="30" height="30" as="alternateBounds" />
          </mxGeometry>
        </mxCell>
        <mxCell id="D6CuBKRdVGohJh1ABLe_-42" value="meal_id&lt;span style=&quot;white-space: pre;&quot;&gt;&#x9;&lt;/span&gt;&lt;span style=&quot;white-space: pre;&quot;&gt;&#x9;&lt;/span&gt;INT" style="shape=partialRectangle;connectable=0;fillColor=none;top=0;left=0;bottom=0;right=0;align=left;spacingLeft=6;fontStyle=5;overflow=hidden;whiteSpace=wrap;html=1;" parent="D6CuBKRdVGohJh1ABLe_-40" vertex="1">
          <mxGeometry x="30" width="179" height="30" as="geometry">
            <mxRectangle width="179" height="30" as="alternateBounds" />
          </mxGeometry>
        </mxCell>
        <mxCell id="7tlb6O7nKomQZ_N-_NIy-55" value="" style="shape=tableRow;horizontal=0;startSize=0;swimlaneHead=0;swimlaneBody=0;fillColor=none;collapsible=0;dropTarget=0;points=[[0,0.5],[1,0.5]];portConstraint=eastwest;top=0;left=0;right=0;bottom=0;" parent="D6CuBKRdVGohJh1ABLe_-39" vertex="1">
          <mxGeometry y="60" width="209" height="30" as="geometry" />
        </mxCell>
        <mxCell id="7tlb6O7nKomQZ_N-_NIy-56" value="" style="shape=partialRectangle;connectable=0;fillColor=none;top=0;left=0;bottom=0;right=0;editable=1;overflow=hidden;whiteSpace=wrap;html=1;" parent="7tlb6O7nKomQZ_N-_NIy-55" vertex="1">
          <mxGeometry width="30" height="30" as="geometry">
            <mxRectangle width="30" height="30" as="alternateBounds" />
          </mxGeometry>
        </mxCell>
        <mxCell id="7tlb6O7nKomQZ_N-_NIy-57" value="meal_name&lt;span style=&quot;white-space: pre;&quot;&gt;&#x9;&lt;/span&gt;VARCHAR(255)" style="shape=partialRectangle;connectable=0;fillColor=none;top=0;left=0;bottom=0;right=0;align=left;spacingLeft=6;overflow=hidden;whiteSpace=wrap;html=1;" parent="7tlb6O7nKomQZ_N-_NIy-55" vertex="1">
          <mxGeometry x="30" width="179" height="30" as="geometry">
            <mxRectangle width="179" height="30" as="alternateBounds" />
          </mxGeometry>
        </mxCell>
        <mxCell id="D6CuBKRdVGohJh1ABLe_-43" value="" style="shape=tableRow;horizontal=0;startSize=0;swimlaneHead=0;swimlaneBody=0;fillColor=none;collapsible=0;dropTarget=0;points=[[0,0.5],[1,0.5]];portConstraint=eastwest;top=0;left=0;right=0;bottom=0;" parent="D6CuBKRdVGohJh1ABLe_-39" vertex="1">
          <mxGeometry y="90" width="209" height="30" as="geometry" />
        </mxCell>
        <mxCell id="D6CuBKRdVGohJh1ABLe_-44" value="FK" style="shape=partialRectangle;connectable=0;fillColor=none;top=0;left=0;bottom=0;right=0;editable=1;overflow=hidden;whiteSpace=wrap;html=1;" parent="D6CuBKRdVGohJh1ABLe_-43" vertex="1">
          <mxGeometry width="30" height="30" as="geometry">
            <mxRectangle width="30" height="30" as="alternateBounds" />
          </mxGeometry>
        </mxCell>
        <mxCell id="D6CuBKRdVGohJh1ABLe_-45" value="dish_id&lt;span style=&quot;white-space: pre;&quot;&gt;&#x9;&lt;/span&gt;&lt;span style=&quot;white-space: pre;&quot;&gt;&#x9;&lt;/span&gt;INT" style="shape=partialRectangle;connectable=0;fillColor=none;top=0;left=0;bottom=0;right=0;align=left;spacingLeft=6;overflow=hidden;whiteSpace=wrap;html=1;" parent="D6CuBKRdVGohJh1ABLe_-43" vertex="1">
          <mxGeometry x="30" width="179" height="30" as="geometry">
            <mxRectangle width="179" height="30" as="alternateBounds" />
          </mxGeometry>
        </mxCell>
        <mxCell id="7tlb6O7nKomQZ_N-_NIy-4" value="" style="shape=tableRow;horizontal=0;startSize=0;swimlaneHead=0;swimlaneBody=0;fillColor=none;collapsible=0;dropTarget=0;points=[[0,0.5],[1,0.5]];portConstraint=eastwest;top=0;left=0;right=0;bottom=0;" parent="D6CuBKRdVGohJh1ABLe_-39" vertex="1">
          <mxGeometry y="120" width="209" height="30" as="geometry" />
        </mxCell>
        <mxCell id="7tlb6O7nKomQZ_N-_NIy-5" value="" style="shape=partialRectangle;connectable=0;fillColor=none;top=0;left=0;bottom=0;right=0;editable=1;overflow=hidden;whiteSpace=wrap;html=1;" parent="7tlb6O7nKomQZ_N-_NIy-4" vertex="1">
          <mxGeometry width="30" height="30" as="geometry">
            <mxRectangle width="30" height="30" as="alternateBounds" />
          </mxGeometry>
        </mxCell>
        <mxCell id="7tlb6O7nKomQZ_N-_NIy-6" value="description&lt;span style=&quot;white-space: pre;&quot;&gt;&#x9;&lt;/span&gt;TEXT" style="shape=partialRectangle;connectable=0;fillColor=none;top=0;left=0;bottom=0;right=0;align=left;spacingLeft=6;overflow=hidden;whiteSpace=wrap;html=1;" parent="7tlb6O7nKomQZ_N-_NIy-4" vertex="1">
          <mxGeometry x="30" width="179" height="30" as="geometry">
            <mxRectangle width="179" height="30" as="alternateBounds" />
          </mxGeometry>
        </mxCell>
        <mxCell id="7tlb6O7nKomQZ_N-_NIy-10" value="" style="shape=tableRow;horizontal=0;startSize=0;swimlaneHead=0;swimlaneBody=0;fillColor=none;collapsible=0;dropTarget=0;points=[[0,0.5],[1,0.5]];portConstraint=eastwest;top=0;left=0;right=0;bottom=0;" parent="D6CuBKRdVGohJh1ABLe_-39" vertex="1">
          <mxGeometry y="150" width="209" height="30" as="geometry" />
        </mxCell>
        <mxCell id="7tlb6O7nKomQZ_N-_NIy-11" value="" style="shape=partialRectangle;connectable=0;fillColor=none;top=0;left=0;bottom=0;right=0;editable=1;overflow=hidden;whiteSpace=wrap;html=1;" parent="7tlb6O7nKomQZ_N-_NIy-10" vertex="1">
          <mxGeometry width="30" height="30" as="geometry">
            <mxRectangle width="30" height="30" as="alternateBounds" />
          </mxGeometry>
        </mxCell>
        <mxCell id="7tlb6O7nKomQZ_N-_NIy-12" value="serving_time&lt;span style=&quot;white-space: pre;&quot;&gt;&#x9;&lt;/span&gt;TIME" style="shape=partialRectangle;connectable=0;fillColor=none;top=0;left=0;bottom=0;right=0;align=left;spacingLeft=6;overflow=hidden;whiteSpace=wrap;html=1;" parent="7tlb6O7nKomQZ_N-_NIy-10" vertex="1">
          <mxGeometry x="30" width="179" height="30" as="geometry">
            <mxRectangle width="179" height="30" as="alternateBounds" />
          </mxGeometry>
        </mxCell>
        <mxCell id="7tlb6O7nKomQZ_N-_NIy-7" value="" style="shape=tableRow;horizontal=0;startSize=0;swimlaneHead=0;swimlaneBody=0;fillColor=none;collapsible=0;dropTarget=0;points=[[0,0.5],[1,0.5]];portConstraint=eastwest;top=0;left=0;right=0;bottom=0;" parent="D6CuBKRdVGohJh1ABLe_-39" vertex="1">
          <mxGeometry y="180" width="209" height="30" as="geometry" />
        </mxCell>
        <mxCell id="7tlb6O7nKomQZ_N-_NIy-8" value="" style="shape=partialRectangle;connectable=0;fillColor=none;top=0;left=0;bottom=0;right=0;editable=1;overflow=hidden;whiteSpace=wrap;html=1;" parent="7tlb6O7nKomQZ_N-_NIy-7" vertex="1">
          <mxGeometry width="30" height="30" as="geometry">
            <mxRectangle width="30" height="30" as="alternateBounds" />
          </mxGeometry>
        </mxCell>
        <mxCell id="7tlb6O7nKomQZ_N-_NIy-9" value="created_id&lt;span style=&quot;white-space: pre;&quot;&gt;&#x9;&lt;/span&gt;TIMESTAMP" style="shape=partialRectangle;connectable=0;fillColor=none;top=0;left=0;bottom=0;right=0;align=left;spacingLeft=6;overflow=hidden;whiteSpace=wrap;html=1;" parent="7tlb6O7nKomQZ_N-_NIy-7" vertex="1">
          <mxGeometry x="30" width="179" height="30" as="geometry">
            <mxRectangle width="179" height="30" as="alternateBounds" />
          </mxGeometry>
        </mxCell>
        <mxCell id="D6CuBKRdVGohJh1ABLe_-46" value="" style="shape=tableRow;horizontal=0;startSize=0;swimlaneHead=0;swimlaneBody=0;fillColor=none;collapsible=0;dropTarget=0;points=[[0,0.5],[1,0.5]];portConstraint=eastwest;top=0;left=0;right=0;bottom=0;" parent="D6CuBKRdVGohJh1ABLe_-39" vertex="1">
          <mxGeometry y="210" width="209" height="30" as="geometry" />
        </mxCell>
        <mxCell id="D6CuBKRdVGohJh1ABLe_-47" value="" style="shape=partialRectangle;connectable=0;fillColor=none;top=0;left=0;bottom=0;right=0;editable=1;overflow=hidden;whiteSpace=wrap;html=1;" parent="D6CuBKRdVGohJh1ABLe_-46" vertex="1">
          <mxGeometry width="30" height="30" as="geometry">
            <mxRectangle width="30" height="30" as="alternateBounds" />
          </mxGeometry>
        </mxCell>
        <mxCell id="D6CuBKRdVGohJh1ABLe_-48" value="updated_id&lt;span style=&quot;white-space: pre;&quot;&gt;&#x9;&lt;/span&gt;TIMESTAMP" style="shape=partialRectangle;connectable=0;fillColor=none;top=0;left=0;bottom=0;right=0;align=left;spacingLeft=6;overflow=hidden;whiteSpace=wrap;html=1;" parent="D6CuBKRdVGohJh1ABLe_-46" vertex="1">
          <mxGeometry x="30" width="179" height="30" as="geometry">
            <mxRectangle width="179" height="30" as="alternateBounds" />
          </mxGeometry>
        </mxCell>
        <mxCell id="D6CuBKRdVGohJh1ABLe_-105" value="Dish" style="shape=table;startSize=30;container=1;collapsible=1;childLayout=tableLayout;fixedRows=1;rowLines=0;fontStyle=1;align=center;resizeLast=1;html=1;fillColor=#1ba1e2;strokeColor=#006EAF;fontColor=#ffffff;" parent="vE3Ha4qgLlNr06Ze3YW5-9" vertex="1">
          <mxGeometry x="43" y="427" width="208" height="390" as="geometry">
            <mxRectangle x="748" y="119.99777777777786" width="80" height="62.22222222222222" as="alternateBounds" />
          </mxGeometry>
        </mxCell>
        <mxCell id="D6CuBKRdVGohJh1ABLe_-106" value="" style="shape=tableRow;horizontal=0;startSize=0;swimlaneHead=0;swimlaneBody=0;fillColor=none;collapsible=0;dropTarget=0;points=[[0,0.5],[1,0.5]];portConstraint=eastwest;top=0;left=0;right=0;bottom=1;" parent="D6CuBKRdVGohJh1ABLe_-105" vertex="1">
          <mxGeometry y="30" width="208" height="30" as="geometry" />
        </mxCell>
        <mxCell id="D6CuBKRdVGohJh1ABLe_-107" value="PK" style="shape=partialRectangle;connectable=0;fillColor=none;top=0;left=0;bottom=0;right=0;fontStyle=1;overflow=hidden;whiteSpace=wrap;html=1;" parent="D6CuBKRdVGohJh1ABLe_-106" vertex="1">
          <mxGeometry width="30" height="30" as="geometry">
            <mxRectangle width="30" height="30" as="alternateBounds" />
          </mxGeometry>
        </mxCell>
        <mxCell id="D6CuBKRdVGohJh1ABLe_-108" value="dish_id&lt;span style=&quot;white-space: pre;&quot;&gt;&#x9;&lt;/span&gt;&lt;span style=&quot;white-space: pre;&quot;&gt;&#x9;&lt;/span&gt;&lt;span style=&quot;white-space: pre;&quot;&gt;&#x9;&lt;/span&gt;INT" style="shape=partialRectangle;connectable=0;fillColor=none;top=0;left=0;bottom=0;right=0;align=left;spacingLeft=6;fontStyle=5;overflow=hidden;whiteSpace=wrap;html=1;" parent="D6CuBKRdVGohJh1ABLe_-106" vertex="1">
          <mxGeometry x="30" width="178" height="30" as="geometry">
            <mxRectangle width="178" height="30" as="alternateBounds" />
          </mxGeometry>
        </mxCell>
        <mxCell id="7tlb6O7nKomQZ_N-_NIy-13" value="" style="shape=tableRow;horizontal=0;startSize=0;swimlaneHead=0;swimlaneBody=0;fillColor=none;collapsible=0;dropTarget=0;points=[[0,0.5],[1,0.5]];portConstraint=eastwest;top=0;left=0;right=0;bottom=0;" parent="D6CuBKRdVGohJh1ABLe_-105" vertex="1">
          <mxGeometry y="60" width="208" height="30" as="geometry" />
        </mxCell>
        <mxCell id="7tlb6O7nKomQZ_N-_NIy-14" value="" style="shape=partialRectangle;connectable=0;fillColor=none;top=0;left=0;bottom=0;right=0;editable=1;overflow=hidden;whiteSpace=wrap;html=1;" parent="7tlb6O7nKomQZ_N-_NIy-13" vertex="1">
          <mxGeometry width="30" height="30" as="geometry">
            <mxRectangle width="30" height="30" as="alternateBounds" />
          </mxGeometry>
        </mxCell>
        <mxCell id="7tlb6O7nKomQZ_N-_NIy-15" value="dish_name&lt;span style=&quot;white-space: pre;&quot;&gt;&#x9;&lt;/span&gt;VARCHAR(255)" style="shape=partialRectangle;connectable=0;fillColor=none;top=0;left=0;bottom=0;right=0;align=left;spacingLeft=6;overflow=hidden;whiteSpace=wrap;html=1;" parent="7tlb6O7nKomQZ_N-_NIy-13" vertex="1">
          <mxGeometry x="30" width="178" height="30" as="geometry">
            <mxRectangle width="178" height="30" as="alternateBounds" />
          </mxGeometry>
        </mxCell>
        <mxCell id="D6CuBKRdVGohJh1ABLe_-109" value="" style="shape=tableRow;horizontal=0;startSize=0;swimlaneHead=0;swimlaneBody=0;fillColor=none;collapsible=0;dropTarget=0;points=[[0,0.5],[1,0.5]];portConstraint=eastwest;top=0;left=0;right=0;bottom=0;" parent="D6CuBKRdVGohJh1ABLe_-105" vertex="1">
          <mxGeometry y="90" width="208" height="30" as="geometry" />
        </mxCell>
        <mxCell id="D6CuBKRdVGohJh1ABLe_-110" value="" style="shape=partialRectangle;connectable=0;fillColor=none;top=0;left=0;bottom=0;right=0;editable=1;overflow=hidden;whiteSpace=wrap;html=1;" parent="D6CuBKRdVGohJh1ABLe_-109" vertex="1">
          <mxGeometry width="30" height="30" as="geometry">
            <mxRectangle width="30" height="30" as="alternateBounds" />
          </mxGeometry>
        </mxCell>
        <mxCell id="D6CuBKRdVGohJh1ABLe_-111" value="url_image&lt;span style=&quot;white-space: pre;&quot;&gt;&#x9;&lt;/span&gt;VARCHAR(255)" style="shape=partialRectangle;connectable=0;fillColor=none;top=0;left=0;bottom=0;right=0;align=left;spacingLeft=6;overflow=hidden;whiteSpace=wrap;html=1;" parent="D6CuBKRdVGohJh1ABLe_-109" vertex="1">
          <mxGeometry x="30" width="178" height="30" as="geometry">
            <mxRectangle width="178" height="30" as="alternateBounds" />
          </mxGeometry>
        </mxCell>
        <mxCell id="D6CuBKRdVGohJh1ABLe_-112" value="" style="shape=tableRow;horizontal=0;startSize=0;swimlaneHead=0;swimlaneBody=0;fillColor=none;collapsible=0;dropTarget=0;points=[[0,0.5],[1,0.5]];portConstraint=eastwest;top=0;left=0;right=0;bottom=0;" parent="D6CuBKRdVGohJh1ABLe_-105" vertex="1">
          <mxGeometry y="120" width="208" height="30" as="geometry" />
        </mxCell>
        <mxCell id="D6CuBKRdVGohJh1ABLe_-113" value="" style="shape=partialRectangle;connectable=0;fillColor=none;top=0;left=0;bottom=0;right=0;editable=1;overflow=hidden;whiteSpace=wrap;html=1;" parent="D6CuBKRdVGohJh1ABLe_-112" vertex="1">
          <mxGeometry width="30" height="30" as="geometry">
            <mxRectangle width="30" height="30" as="alternateBounds" />
          </mxGeometry>
        </mxCell>
        <mxCell id="D6CuBKRdVGohJh1ABLe_-114" value="url_video&lt;span style=&quot;white-space: pre;&quot;&gt;&#x9;&lt;/span&gt;&lt;span style=&quot;white-space: pre;&quot;&gt;&#x9;&lt;/span&gt;VARCHAR(255)" style="shape=partialRectangle;connectable=0;fillColor=none;top=0;left=0;bottom=0;right=0;align=left;spacingLeft=6;overflow=hidden;whiteSpace=wrap;html=1;" parent="D6CuBKRdVGohJh1ABLe_-112" vertex="1">
          <mxGeometry x="30" width="178" height="30" as="geometry">
            <mxRectangle width="178" height="30" as="alternateBounds" />
          </mxGeometry>
        </mxCell>
        <mxCell id="D6CuBKRdVGohJh1ABLe_-115" value="" style="shape=tableRow;horizontal=0;startSize=0;swimlaneHead=0;swimlaneBody=0;fillColor=none;collapsible=0;dropTarget=0;points=[[0,0.5],[1,0.5]];portConstraint=eastwest;top=0;left=0;right=0;bottom=0;" parent="D6CuBKRdVGohJh1ABLe_-105" vertex="1">
          <mxGeometry y="150" width="208" height="30" as="geometry" />
        </mxCell>
        <mxCell id="D6CuBKRdVGohJh1ABLe_-116" value="FK" style="shape=partialRectangle;connectable=0;fillColor=none;top=0;left=0;bottom=0;right=0;editable=1;overflow=hidden;whiteSpace=wrap;html=1;" parent="D6CuBKRdVGohJh1ABLe_-115" vertex="1">
          <mxGeometry width="30" height="30" as="geometry">
            <mxRectangle width="30" height="30" as="alternateBounds" />
          </mxGeometry>
        </mxCell>
        <mxCell id="D6CuBKRdVGohJh1ABLe_-117" value="nutrition_id&lt;span style=&quot;white-space: pre;&quot;&gt;&#x9;&lt;/span&gt;INT" style="shape=partialRectangle;connectable=0;fillColor=none;top=0;left=0;bottom=0;right=0;align=left;spacingLeft=6;overflow=hidden;whiteSpace=wrap;html=1;" parent="D6CuBKRdVGohJh1ABLe_-115" vertex="1">
          <mxGeometry x="30" width="178" height="30" as="geometry">
            <mxRectangle width="178" height="30" as="alternateBounds" />
          </mxGeometry>
        </mxCell>
        <mxCell id="mBsPnQfpfEU12FAxFHIT-58" value="" style="shape=tableRow;horizontal=0;startSize=0;swimlaneHead=0;swimlaneBody=0;fillColor=none;collapsible=0;dropTarget=0;points=[[0,0.5],[1,0.5]];portConstraint=eastwest;top=0;left=0;right=0;bottom=0;" parent="D6CuBKRdVGohJh1ABLe_-105" vertex="1">
          <mxGeometry y="180" width="208" height="30" as="geometry" />
        </mxCell>
        <mxCell id="mBsPnQfpfEU12FAxFHIT-59" value="FK" style="shape=partialRectangle;connectable=0;fillColor=none;top=0;left=0;bottom=0;right=0;editable=1;overflow=hidden;whiteSpace=wrap;html=1;" parent="mBsPnQfpfEU12FAxFHIT-58" vertex="1">
          <mxGeometry width="30" height="30" as="geometry">
            <mxRectangle width="30" height="30" as="alternateBounds" />
          </mxGeometry>
        </mxCell>
        <mxCell id="mBsPnQfpfEU12FAxFHIT-60" value="cuisine_type&lt;span style=&quot;white-space: pre;&quot;&gt;&#x9;&lt;/span&gt;VARCHAR(50)" style="shape=partialRectangle;connectable=0;fillColor=none;top=0;left=0;bottom=0;right=0;align=left;spacingLeft=6;overflow=hidden;whiteSpace=wrap;html=1;" parent="mBsPnQfpfEU12FAxFHIT-58" vertex="1">
          <mxGeometry x="30" width="178" height="30" as="geometry">
            <mxRectangle width="178" height="30" as="alternateBounds" />
          </mxGeometry>
        </mxCell>
        <mxCell id="mBsPnQfpfEU12FAxFHIT-52" value="" style="shape=tableRow;horizontal=0;startSize=0;swimlaneHead=0;swimlaneBody=0;fillColor=none;collapsible=0;dropTarget=0;points=[[0,0.5],[1,0.5]];portConstraint=eastwest;top=0;left=0;right=0;bottom=0;" parent="D6CuBKRdVGohJh1ABLe_-105" vertex="1">
          <mxGeometry y="210" width="208" height="30" as="geometry" />
        </mxCell>
        <mxCell id="mBsPnQfpfEU12FAxFHIT-53" value="" style="shape=partialRectangle;connectable=0;fillColor=none;top=0;left=0;bottom=0;right=0;editable=1;overflow=hidden;whiteSpace=wrap;html=1;" parent="mBsPnQfpfEU12FAxFHIT-52" vertex="1">
          <mxGeometry width="30" height="30" as="geometry">
            <mxRectangle width="30" height="30" as="alternateBounds" />
          </mxGeometry>
        </mxCell>
        <mxCell id="mBsPnQfpfEU12FAxFHIT-54" value="descrition&lt;span style=&quot;white-space: pre;&quot;&gt;&#x9;&lt;/span&gt;&lt;span style=&quot;white-space: pre;&quot;&gt;&#x9;&lt;/span&gt;TEXT" style="shape=partialRectangle;connectable=0;fillColor=none;top=0;left=0;bottom=0;right=0;align=left;spacingLeft=6;overflow=hidden;whiteSpace=wrap;html=1;" parent="mBsPnQfpfEU12FAxFHIT-52" vertex="1">
          <mxGeometry x="30" width="178" height="30" as="geometry">
            <mxRectangle width="178" height="30" as="alternateBounds" />
          </mxGeometry>
        </mxCell>
        <mxCell id="vE3Ha4qgLlNr06Ze3YW5-146" value="" style="shape=tableRow;horizontal=0;startSize=0;swimlaneHead=0;swimlaneBody=0;fillColor=none;collapsible=0;dropTarget=0;points=[[0,0.5],[1,0.5]];portConstraint=eastwest;top=0;left=0;right=0;bottom=0;" parent="D6CuBKRdVGohJh1ABLe_-105" vertex="1">
          <mxGeometry y="240" width="208" height="30" as="geometry" />
        </mxCell>
        <mxCell id="vE3Ha4qgLlNr06Ze3YW5-147" value="" style="shape=partialRectangle;connectable=0;fillColor=none;top=0;left=0;bottom=0;right=0;editable=1;overflow=hidden;whiteSpace=wrap;html=1;" parent="vE3Ha4qgLlNr06Ze3YW5-146" vertex="1">
          <mxGeometry width="30" height="30" as="geometry">
            <mxRectangle width="30" height="30" as="alternateBounds" />
          </mxGeometry>
        </mxCell>
        <mxCell id="vE3Ha4qgLlNr06Ze3YW5-148" value="descrition&lt;span style=&quot;white-space: pre;&quot;&gt;&#x9;&lt;/span&gt;&lt;span style=&quot;white-space: pre;&quot;&gt;&#x9;&lt;/span&gt;TEXT" style="shape=partialRectangle;connectable=0;fillColor=none;top=0;left=0;bottom=0;right=0;align=left;spacingLeft=6;overflow=hidden;whiteSpace=wrap;html=1;" parent="vE3Ha4qgLlNr06Ze3YW5-146" vertex="1">
          <mxGeometry x="30" width="178" height="30" as="geometry">
            <mxRectangle width="178" height="30" as="alternateBounds" />
          </mxGeometry>
        </mxCell>
        <mxCell id="mBsPnQfpfEU12FAxFHIT-55" value="" style="shape=tableRow;horizontal=0;startSize=0;swimlaneHead=0;swimlaneBody=0;fillColor=none;collapsible=0;dropTarget=0;points=[[0,0.5],[1,0.5]];portConstraint=eastwest;top=0;left=0;right=0;bottom=0;" parent="D6CuBKRdVGohJh1ABLe_-105" vertex="1">
          <mxGeometry y="270" width="208" height="30" as="geometry" />
        </mxCell>
        <mxCell id="mBsPnQfpfEU12FAxFHIT-56" value="" style="shape=partialRectangle;connectable=0;fillColor=none;top=0;left=0;bottom=0;right=0;editable=1;overflow=hidden;whiteSpace=wrap;html=1;" parent="mBsPnQfpfEU12FAxFHIT-55" vertex="1">
          <mxGeometry width="30" height="30" as="geometry">
            <mxRectangle width="30" height="30" as="alternateBounds" />
          </mxGeometry>
        </mxCell>
        <mxCell id="mBsPnQfpfEU12FAxFHIT-57" value="ingredients&lt;span style=&quot;white-space: pre;&quot;&gt;&#x9;&lt;/span&gt;TEXT" style="shape=partialRectangle;connectable=0;fillColor=none;top=0;left=0;bottom=0;right=0;align=left;spacingLeft=6;overflow=hidden;whiteSpace=wrap;html=1;" parent="mBsPnQfpfEU12FAxFHIT-55" vertex="1">
          <mxGeometry x="30" width="178" height="30" as="geometry">
            <mxRectangle width="178" height="30" as="alternateBounds" />
          </mxGeometry>
        </mxCell>
        <mxCell id="mBsPnQfpfEU12FAxFHIT-49" value="" style="shape=tableRow;horizontal=0;startSize=0;swimlaneHead=0;swimlaneBody=0;fillColor=none;collapsible=0;dropTarget=0;points=[[0,0.5],[1,0.5]];portConstraint=eastwest;top=0;left=0;right=0;bottom=0;" parent="D6CuBKRdVGohJh1ABLe_-105" vertex="1">
          <mxGeometry y="300" width="208" height="30" as="geometry" />
        </mxCell>
        <mxCell id="mBsPnQfpfEU12FAxFHIT-50" value="FK" style="shape=partialRectangle;connectable=0;fillColor=none;top=0;left=0;bottom=0;right=0;editable=1;overflow=hidden;whiteSpace=wrap;html=1;" parent="mBsPnQfpfEU12FAxFHIT-49" vertex="1">
          <mxGeometry width="30" height="30" as="geometry">
            <mxRectangle width="30" height="30" as="alternateBounds" />
          </mxGeometry>
        </mxCell>
        <mxCell id="mBsPnQfpfEU12FAxFHIT-51" value="recipe_id&lt;span style=&quot;white-space: pre;&quot;&gt;&#x9;&lt;/span&gt;&lt;span style=&quot;white-space: pre;&quot;&gt;&#x9;&lt;/span&gt;INT" style="shape=partialRectangle;connectable=0;fillColor=none;top=0;left=0;bottom=0;right=0;align=left;spacingLeft=6;overflow=hidden;whiteSpace=wrap;html=1;" parent="mBsPnQfpfEU12FAxFHIT-49" vertex="1">
          <mxGeometry x="30" width="178" height="30" as="geometry">
            <mxRectangle width="178" height="30" as="alternateBounds" />
          </mxGeometry>
        </mxCell>
        <mxCell id="mBsPnQfpfEU12FAxFHIT-46" value="" style="shape=tableRow;horizontal=0;startSize=0;swimlaneHead=0;swimlaneBody=0;fillColor=none;collapsible=0;dropTarget=0;points=[[0,0.5],[1,0.5]];portConstraint=eastwest;top=0;left=0;right=0;bottom=0;" parent="D6CuBKRdVGohJh1ABLe_-105" vertex="1">
          <mxGeometry y="330" width="208" height="30" as="geometry" />
        </mxCell>
        <mxCell id="mBsPnQfpfEU12FAxFHIT-47" value="" style="shape=partialRectangle;connectable=0;fillColor=none;top=0;left=0;bottom=0;right=0;editable=1;overflow=hidden;whiteSpace=wrap;html=1;" parent="mBsPnQfpfEU12FAxFHIT-46" vertex="1">
          <mxGeometry width="30" height="30" as="geometry">
            <mxRectangle width="30" height="30" as="alternateBounds" />
          </mxGeometry>
        </mxCell>
        <mxCell id="mBsPnQfpfEU12FAxFHIT-48" value="created_at&lt;span style=&quot;white-space: pre;&quot;&gt;&#x9;&lt;/span&gt;TIMESTAMP" style="shape=partialRectangle;connectable=0;fillColor=none;top=0;left=0;bottom=0;right=0;align=left;spacingLeft=6;overflow=hidden;whiteSpace=wrap;html=1;" parent="mBsPnQfpfEU12FAxFHIT-46" vertex="1">
          <mxGeometry x="30" width="178" height="30" as="geometry">
            <mxRectangle width="178" height="30" as="alternateBounds" />
          </mxGeometry>
        </mxCell>
        <mxCell id="mBsPnQfpfEU12FAxFHIT-1" value="" style="shape=tableRow;horizontal=0;startSize=0;swimlaneHead=0;swimlaneBody=0;fillColor=none;collapsible=0;dropTarget=0;points=[[0,0.5],[1,0.5]];portConstraint=eastwest;top=0;left=0;right=0;bottom=0;" parent="D6CuBKRdVGohJh1ABLe_-105" vertex="1">
          <mxGeometry y="360" width="208" height="30" as="geometry" />
        </mxCell>
        <mxCell id="mBsPnQfpfEU12FAxFHIT-2" value="" style="shape=partialRectangle;connectable=0;fillColor=none;top=0;left=0;bottom=0;right=0;editable=1;overflow=hidden;whiteSpace=wrap;html=1;" parent="mBsPnQfpfEU12FAxFHIT-1" vertex="1">
          <mxGeometry width="30" height="30" as="geometry">
            <mxRectangle width="30" height="30" as="alternateBounds" />
          </mxGeometry>
        </mxCell>
        <mxCell id="mBsPnQfpfEU12FAxFHIT-3" value="updated_at&lt;span style=&quot;white-space: pre;&quot;&gt;&#x9;&lt;/span&gt;TIMESTAMP" style="shape=partialRectangle;connectable=0;fillColor=none;top=0;left=0;bottom=0;right=0;align=left;spacingLeft=6;overflow=hidden;whiteSpace=wrap;html=1;" parent="mBsPnQfpfEU12FAxFHIT-1" vertex="1">
          <mxGeometry x="30" width="178" height="30" as="geometry">
            <mxRectangle width="178" height="30" as="alternateBounds" />
          </mxGeometry>
        </mxCell>
        <mxCell id="D6CuBKRdVGohJh1ABLe_-118" value="Food_Nutrition_Content" style="shape=table;startSize=30;container=1;collapsible=1;childLayout=tableLayout;fixedRows=1;rowLines=0;fontStyle=1;align=center;resizeLast=1;html=1;fillColor=#1ba1e2;strokeColor=#006EAF;fontColor=#ffffff;" parent="vE3Ha4qgLlNr06Ze3YW5-9" vertex="1">
          <mxGeometry x="377" y="422" width="230" height="266" as="geometry">
            <mxRectangle y="764.9977777777779" width="180" height="62.22222222222222" as="alternateBounds" />
          </mxGeometry>
        </mxCell>
        <mxCell id="D6CuBKRdVGohJh1ABLe_-119" value="" style="shape=tableRow;horizontal=0;startSize=0;swimlaneHead=0;swimlaneBody=0;fillColor=none;collapsible=0;dropTarget=0;points=[[0,0.5],[1,0.5]];portConstraint=eastwest;top=0;left=0;right=0;bottom=1;" parent="D6CuBKRdVGohJh1ABLe_-118" vertex="1">
          <mxGeometry y="30" width="230" height="30" as="geometry" />
        </mxCell>
        <mxCell id="D6CuBKRdVGohJh1ABLe_-120" value="PK" style="shape=partialRectangle;connectable=0;fillColor=none;top=0;left=0;bottom=0;right=0;fontStyle=1;overflow=hidden;whiteSpace=wrap;html=1;" parent="D6CuBKRdVGohJh1ABLe_-119" vertex="1">
          <mxGeometry width="30" height="30" as="geometry">
            <mxRectangle width="30" height="30" as="alternateBounds" />
          </mxGeometry>
        </mxCell>
        <mxCell id="D6CuBKRdVGohJh1ABLe_-121" value="nutrition_id&lt;span style=&quot;white-space: pre;&quot;&gt;&#x9;&lt;/span&gt;&lt;span style=&quot;white-space: pre;&quot;&gt;&#x9;&lt;/span&gt;INT" style="shape=partialRectangle;connectable=0;fillColor=none;top=0;left=0;bottom=0;right=0;align=left;spacingLeft=6;fontStyle=5;overflow=hidden;whiteSpace=wrap;html=1;" parent="D6CuBKRdVGohJh1ABLe_-119" vertex="1">
          <mxGeometry x="30" width="200" height="30" as="geometry">
            <mxRectangle width="200" height="30" as="alternateBounds" />
          </mxGeometry>
        </mxCell>
        <mxCell id="D6CuBKRdVGohJh1ABLe_-122" value="" style="shape=tableRow;horizontal=0;startSize=0;swimlaneHead=0;swimlaneBody=0;fillColor=none;collapsible=0;dropTarget=0;points=[[0,0.5],[1,0.5]];portConstraint=eastwest;top=0;left=0;right=0;bottom=0;" parent="D6CuBKRdVGohJh1ABLe_-118" vertex="1">
          <mxGeometry y="60" width="230" height="25" as="geometry" />
        </mxCell>
        <mxCell id="D6CuBKRdVGohJh1ABLe_-123" value="" style="shape=partialRectangle;connectable=0;fillColor=none;top=0;left=0;bottom=0;right=0;editable=1;overflow=hidden;whiteSpace=wrap;html=1;" parent="D6CuBKRdVGohJh1ABLe_-122" vertex="1">
          <mxGeometry width="30" height="25" as="geometry">
            <mxRectangle width="30" height="25" as="alternateBounds" />
          </mxGeometry>
        </mxCell>
        <mxCell id="D6CuBKRdVGohJh1ABLe_-124" value="&lt;div style=&quot;&quot;&gt;&lt;span style=&quot;background-color: initial;&quot;&gt;calories&lt;/span&gt;&lt;span style=&quot;background-color: initial; white-space: pre;&quot;&gt;&#x9;&lt;/span&gt;&lt;span style=&quot;background-color: initial; white-space: pre;&quot;&gt;&#x9;&lt;span style=&quot;white-space: pre;&quot;&gt;&#x9;&lt;/span&gt;&lt;/span&gt;&lt;span style=&quot;background-color: initial;&quot;&gt;DECIMAL(8, 2)&lt;/span&gt;&lt;span style=&quot;background-color: initial; white-space: pre;&quot;&gt;&#x9;&lt;/span&gt;&lt;span style=&quot;background-color: initial; white-space: pre;&quot;&gt;&#x9;&lt;/span&gt;&lt;span style=&quot;background-color: initial; white-space: pre;&quot;&gt;&#x9;&lt;/span&gt;&lt;span style=&quot;background-color: initial; white-space: pre;&quot;&gt;&#x9;&lt;/span&gt;&lt;span style=&quot;background-color: initial; white-space: pre;&quot;&gt;&#x9;&lt;/span&gt;&lt;span style=&quot;background-color: initial; white-space: pre;&quot;&gt;&#x9;&lt;/span&gt;&lt;/div&gt;" style="shape=partialRectangle;connectable=0;fillColor=none;top=0;left=0;bottom=0;right=0;align=left;spacingLeft=6;overflow=hidden;whiteSpace=wrap;html=1;" parent="D6CuBKRdVGohJh1ABLe_-122" vertex="1">
          <mxGeometry x="30" width="200" height="25" as="geometry">
            <mxRectangle width="200" height="25" as="alternateBounds" />
          </mxGeometry>
        </mxCell>
        <mxCell id="D6CuBKRdVGohJh1ABLe_-125" value="" style="shape=tableRow;horizontal=0;startSize=0;swimlaneHead=0;swimlaneBody=0;fillColor=none;collapsible=0;dropTarget=0;points=[[0,0.5],[1,0.5]];portConstraint=eastwest;top=0;left=0;right=0;bottom=0;" parent="D6CuBKRdVGohJh1ABLe_-118" vertex="1">
          <mxGeometry y="85" width="230" height="29" as="geometry" />
        </mxCell>
        <mxCell id="D6CuBKRdVGohJh1ABLe_-126" value="" style="shape=partialRectangle;connectable=0;fillColor=none;top=0;left=0;bottom=0;right=0;editable=1;overflow=hidden;whiteSpace=wrap;html=1;" parent="D6CuBKRdVGohJh1ABLe_-125" vertex="1">
          <mxGeometry width="30" height="29" as="geometry">
            <mxRectangle width="30" height="29" as="alternateBounds" />
          </mxGeometry>
        </mxCell>
        <mxCell id="D6CuBKRdVGohJh1ABLe_-127" value="protein&lt;span style=&quot;white-space: pre;&quot;&gt;&#x9;&lt;/span&gt;&lt;span style=&quot;white-space: pre;&quot;&gt;&#x9;&lt;/span&gt;&lt;span style=&quot;white-space: pre;&quot;&gt;&#x9;&lt;/span&gt;DECIMAL(8, 2)" style="shape=partialRectangle;connectable=0;fillColor=none;top=0;left=0;bottom=0;right=0;align=left;spacingLeft=6;overflow=hidden;whiteSpace=wrap;html=1;" parent="D6CuBKRdVGohJh1ABLe_-125" vertex="1">
          <mxGeometry x="30" width="200" height="29" as="geometry">
            <mxRectangle width="200" height="29" as="alternateBounds" />
          </mxGeometry>
        </mxCell>
        <mxCell id="D6CuBKRdVGohJh1ABLe_-128" value="" style="shape=tableRow;horizontal=0;startSize=0;swimlaneHead=0;swimlaneBody=0;fillColor=none;collapsible=0;dropTarget=0;points=[[0,0.5],[1,0.5]];portConstraint=eastwest;top=0;left=0;right=0;bottom=0;" parent="D6CuBKRdVGohJh1ABLe_-118" vertex="1">
          <mxGeometry y="114" width="230" height="30" as="geometry" />
        </mxCell>
        <mxCell id="D6CuBKRdVGohJh1ABLe_-129" value="" style="shape=partialRectangle;connectable=0;fillColor=none;top=0;left=0;bottom=0;right=0;editable=1;overflow=hidden;whiteSpace=wrap;html=1;" parent="D6CuBKRdVGohJh1ABLe_-128" vertex="1">
          <mxGeometry width="30" height="30" as="geometry">
            <mxRectangle width="30" height="30" as="alternateBounds" />
          </mxGeometry>
        </mxCell>
        <mxCell id="D6CuBKRdVGohJh1ABLe_-130" value="carbohydrates&lt;span style=&quot;white-space: pre;&quot;&gt;&#x9;&lt;/span&gt;&lt;span style=&quot;white-space: pre;&quot;&gt;&#x9;&lt;/span&gt;DECIMAL(8, 2)" style="shape=partialRectangle;connectable=0;fillColor=none;top=0;left=0;bottom=0;right=0;align=left;spacingLeft=6;overflow=hidden;whiteSpace=wrap;html=1;" parent="D6CuBKRdVGohJh1ABLe_-128" vertex="1">
          <mxGeometry x="30" width="200" height="30" as="geometry">
            <mxRectangle width="200" height="30" as="alternateBounds" />
          </mxGeometry>
        </mxCell>
        <mxCell id="mBsPnQfpfEU12FAxFHIT-5" value="" style="shape=tableRow;horizontal=0;startSize=0;swimlaneHead=0;swimlaneBody=0;fillColor=none;collapsible=0;dropTarget=0;points=[[0,0.5],[1,0.5]];portConstraint=eastwest;top=0;left=0;right=0;bottom=0;" parent="D6CuBKRdVGohJh1ABLe_-118" vertex="1">
          <mxGeometry y="144" width="230" height="30" as="geometry" />
        </mxCell>
        <mxCell id="mBsPnQfpfEU12FAxFHIT-6" value="" style="shape=partialRectangle;connectable=0;fillColor=none;top=0;left=0;bottom=0;right=0;editable=1;overflow=hidden;whiteSpace=wrap;html=1;" parent="mBsPnQfpfEU12FAxFHIT-5" vertex="1">
          <mxGeometry width="30" height="30" as="geometry">
            <mxRectangle width="30" height="30" as="alternateBounds" />
          </mxGeometry>
        </mxCell>
        <mxCell id="mBsPnQfpfEU12FAxFHIT-7" value="fat&lt;span style=&quot;white-space: pre;&quot;&gt;&#x9;&lt;/span&gt;&lt;span style=&quot;white-space: pre;&quot;&gt;&#x9;&lt;/span&gt;&lt;span style=&quot;white-space: pre;&quot;&gt;&#x9;&lt;/span&gt;&lt;span style=&quot;white-space: pre;&quot;&gt;&#x9;&lt;/span&gt;DECIMAL(8, 2)" style="shape=partialRectangle;connectable=0;fillColor=none;top=0;left=0;bottom=0;right=0;align=left;spacingLeft=6;overflow=hidden;whiteSpace=wrap;html=1;" parent="mBsPnQfpfEU12FAxFHIT-5" vertex="1">
          <mxGeometry x="30" width="200" height="30" as="geometry">
            <mxRectangle width="200" height="30" as="alternateBounds" />
          </mxGeometry>
        </mxCell>
        <mxCell id="mBsPnQfpfEU12FAxFHIT-8" value="" style="shape=tableRow;horizontal=0;startSize=0;swimlaneHead=0;swimlaneBody=0;fillColor=none;collapsible=0;dropTarget=0;points=[[0,0.5],[1,0.5]];portConstraint=eastwest;top=0;left=0;right=0;bottom=0;" parent="D6CuBKRdVGohJh1ABLe_-118" vertex="1">
          <mxGeometry y="174" width="230" height="30" as="geometry" />
        </mxCell>
        <mxCell id="mBsPnQfpfEU12FAxFHIT-9" value="" style="shape=partialRectangle;connectable=0;fillColor=none;top=0;left=0;bottom=0;right=0;editable=1;overflow=hidden;whiteSpace=wrap;html=1;" parent="mBsPnQfpfEU12FAxFHIT-8" vertex="1">
          <mxGeometry width="30" height="30" as="geometry">
            <mxRectangle width="30" height="30" as="alternateBounds" />
          </mxGeometry>
        </mxCell>
        <mxCell id="mBsPnQfpfEU12FAxFHIT-10" value="fiber&lt;span style=&quot;white-space: pre;&quot;&gt;&#x9;&lt;/span&gt;&lt;span style=&quot;white-space: pre;&quot;&gt;&#x9;&lt;/span&gt;&lt;span style=&quot;white-space: pre;&quot;&gt;&#x9;&lt;/span&gt;&lt;span style=&quot;white-space: pre;&quot;&gt;&#x9;&lt;/span&gt;DECIMAL(8, 2)" style="shape=partialRectangle;connectable=0;fillColor=none;top=0;left=0;bottom=0;right=0;align=left;spacingLeft=6;overflow=hidden;whiteSpace=wrap;html=1;" parent="mBsPnQfpfEU12FAxFHIT-8" vertex="1">
          <mxGeometry x="30" width="200" height="30" as="geometry">
            <mxRectangle width="200" height="30" as="alternateBounds" />
          </mxGeometry>
        </mxCell>
        <mxCell id="7tlb6O7nKomQZ_N-_NIy-26" value="" style="shape=tableRow;horizontal=0;startSize=0;swimlaneHead=0;swimlaneBody=0;fillColor=none;collapsible=0;dropTarget=0;points=[[0,0.5],[1,0.5]];portConstraint=eastwest;top=0;left=0;right=0;bottom=0;" parent="D6CuBKRdVGohJh1ABLe_-118" vertex="1">
          <mxGeometry y="204" width="230" height="30" as="geometry" />
        </mxCell>
        <mxCell id="7tlb6O7nKomQZ_N-_NIy-27" value="" style="shape=partialRectangle;connectable=0;fillColor=none;top=0;left=0;bottom=0;right=0;editable=1;overflow=hidden;whiteSpace=wrap;html=1;" parent="7tlb6O7nKomQZ_N-_NIy-26" vertex="1">
          <mxGeometry width="30" height="30" as="geometry">
            <mxRectangle width="30" height="30" as="alternateBounds" />
          </mxGeometry>
        </mxCell>
        <mxCell id="7tlb6O7nKomQZ_N-_NIy-28" value="sugar&lt;span style=&quot;white-space: pre;&quot;&gt;&#x9;&lt;/span&gt;&lt;span style=&quot;white-space: pre;&quot;&gt;&#x9;&lt;/span&gt;&lt;span style=&quot;white-space: pre;&quot;&gt;&#x9;&lt;/span&gt;DECIMAL(8, 2)" style="shape=partialRectangle;connectable=0;fillColor=none;top=0;left=0;bottom=0;right=0;align=left;spacingLeft=6;overflow=hidden;whiteSpace=wrap;html=1;" parent="7tlb6O7nKomQZ_N-_NIy-26" vertex="1">
          <mxGeometry x="30" width="200" height="30" as="geometry">
            <mxRectangle width="200" height="30" as="alternateBounds" />
          </mxGeometry>
        </mxCell>
        <mxCell id="mBsPnQfpfEU12FAxFHIT-14" value="" style="shape=tableRow;horizontal=0;startSize=0;swimlaneHead=0;swimlaneBody=0;fillColor=none;collapsible=0;dropTarget=0;points=[[0,0.5],[1,0.5]];portConstraint=eastwest;top=0;left=0;right=0;bottom=0;" parent="D6CuBKRdVGohJh1ABLe_-118" vertex="1">
          <mxGeometry y="234" width="230" height="30" as="geometry" />
        </mxCell>
        <mxCell id="mBsPnQfpfEU12FAxFHIT-15" value="" style="shape=partialRectangle;connectable=0;fillColor=none;top=0;left=0;bottom=0;right=0;editable=1;overflow=hidden;whiteSpace=wrap;html=1;" parent="mBsPnQfpfEU12FAxFHIT-14" vertex="1">
          <mxGeometry width="30" height="30" as="geometry">
            <mxRectangle width="30" height="30" as="alternateBounds" />
          </mxGeometry>
        </mxCell>
        <mxCell id="mBsPnQfpfEU12FAxFHIT-16" value="sodium&lt;span style=&quot;white-space: pre;&quot;&gt;&#x9;&lt;/span&gt;&lt;span style=&quot;white-space: pre;&quot;&gt;&#x9;&lt;/span&gt;&lt;span style=&quot;white-space: pre;&quot;&gt;&#x9;&lt;/span&gt;DECIMAL(8, 2)" style="shape=partialRectangle;connectable=0;fillColor=none;top=0;left=0;bottom=0;right=0;align=left;spacingLeft=6;overflow=hidden;whiteSpace=wrap;html=1;" parent="mBsPnQfpfEU12FAxFHIT-14" vertex="1">
          <mxGeometry x="30" width="200" height="30" as="geometry">
            <mxRectangle width="200" height="30" as="alternateBounds" />
          </mxGeometry>
        </mxCell>
        <mxCell id="t8a5REhLXbe7W7D2ZkRc-8" value="Seach" style="shape=table;startSize=30;container=1;collapsible=1;childLayout=tableLayout;fixedRows=1;rowLines=0;fontStyle=1;align=center;resizeLast=1;html=1;fillColor=#1ba1e2;fontColor=#ffffff;strokeColor=#006EAF;" parent="vE3Ha4qgLlNr06Ze3YW5-9" vertex="1">
          <mxGeometry x="43" width="210" height="270" as="geometry" />
        </mxCell>
        <mxCell id="t8a5REhLXbe7W7D2ZkRc-9" value="" style="shape=tableRow;horizontal=0;startSize=0;swimlaneHead=0;swimlaneBody=0;fillColor=none;collapsible=0;dropTarget=0;points=[[0,0.5],[1,0.5]];portConstraint=eastwest;top=0;left=0;right=0;bottom=1;" parent="t8a5REhLXbe7W7D2ZkRc-8" vertex="1">
          <mxGeometry y="30" width="210" height="30" as="geometry" />
        </mxCell>
        <mxCell id="t8a5REhLXbe7W7D2ZkRc-10" value="PK" style="shape=partialRectangle;connectable=0;fillColor=none;top=0;left=0;bottom=0;right=0;fontStyle=1;overflow=hidden;whiteSpace=wrap;html=1;" parent="t8a5REhLXbe7W7D2ZkRc-9" vertex="1">
          <mxGeometry width="30" height="30" as="geometry">
            <mxRectangle width="30" height="30" as="alternateBounds" />
          </mxGeometry>
        </mxCell>
        <mxCell id="t8a5REhLXbe7W7D2ZkRc-11" value="seach_id&lt;span style=&quot;white-space: pre;&quot;&gt;&#x9;&lt;span style=&quot;white-space: pre;&quot;&gt;&#x9;&lt;/span&gt;INT&lt;/span&gt;" style="shape=partialRectangle;connectable=0;fillColor=none;top=0;left=0;bottom=0;right=0;align=left;spacingLeft=6;fontStyle=5;overflow=hidden;whiteSpace=wrap;html=1;" parent="t8a5REhLXbe7W7D2ZkRc-9" vertex="1">
          <mxGeometry x="30" width="180" height="30" as="geometry">
            <mxRectangle width="180" height="30" as="alternateBounds" />
          </mxGeometry>
        </mxCell>
        <mxCell id="7tlb6O7nKomQZ_N-_NIy-19" value="" style="shape=tableRow;horizontal=0;startSize=0;swimlaneHead=0;swimlaneBody=0;fillColor=none;collapsible=0;dropTarget=0;points=[[0,0.5],[1,0.5]];portConstraint=eastwest;top=0;left=0;right=0;bottom=0;" parent="t8a5REhLXbe7W7D2ZkRc-8" vertex="1">
          <mxGeometry y="60" width="210" height="30" as="geometry" />
        </mxCell>
        <mxCell id="7tlb6O7nKomQZ_N-_NIy-20" value="FK" style="shape=partialRectangle;connectable=0;fillColor=none;top=0;left=0;bottom=0;right=0;editable=1;overflow=hidden;whiteSpace=wrap;html=1;" parent="7tlb6O7nKomQZ_N-_NIy-19" vertex="1">
          <mxGeometry width="30" height="30" as="geometry">
            <mxRectangle width="30" height="30" as="alternateBounds" />
          </mxGeometry>
        </mxCell>
        <mxCell id="7tlb6O7nKomQZ_N-_NIy-21" value="user_id&lt;span style=&quot;white-space: pre;&quot;&gt;&#x9;&lt;/span&gt;&lt;span style=&quot;white-space: pre;&quot;&gt;&#x9;&lt;/span&gt;INT" style="shape=partialRectangle;connectable=0;fillColor=none;top=0;left=0;bottom=0;right=0;align=left;spacingLeft=6;overflow=hidden;whiteSpace=wrap;html=1;" parent="7tlb6O7nKomQZ_N-_NIy-19" vertex="1">
          <mxGeometry x="30" width="180" height="30" as="geometry">
            <mxRectangle width="180" height="30" as="alternateBounds" />
          </mxGeometry>
        </mxCell>
        <mxCell id="t8a5REhLXbe7W7D2ZkRc-12" value="" style="shape=tableRow;horizontal=0;startSize=0;swimlaneHead=0;swimlaneBody=0;fillColor=none;collapsible=0;dropTarget=0;points=[[0,0.5],[1,0.5]];portConstraint=eastwest;top=0;left=0;right=0;bottom=0;" parent="t8a5REhLXbe7W7D2ZkRc-8" vertex="1">
          <mxGeometry y="90" width="210" height="30" as="geometry" />
        </mxCell>
        <mxCell id="t8a5REhLXbe7W7D2ZkRc-13" value="FK" style="shape=partialRectangle;connectable=0;fillColor=none;top=0;left=0;bottom=0;right=0;editable=1;overflow=hidden;whiteSpace=wrap;html=1;" parent="t8a5REhLXbe7W7D2ZkRc-12" vertex="1">
          <mxGeometry width="30" height="30" as="geometry">
            <mxRectangle width="30" height="30" as="alternateBounds" />
          </mxGeometry>
        </mxCell>
        <mxCell id="t8a5REhLXbe7W7D2ZkRc-14" value="meal_id&lt;span style=&quot;white-space: pre;&quot;&gt;&#x9;&lt;/span&gt;&lt;span style=&quot;white-space: pre;&quot;&gt;&#x9;&lt;/span&gt;INT" style="shape=partialRectangle;connectable=0;fillColor=none;top=0;left=0;bottom=0;right=0;align=left;spacingLeft=6;overflow=hidden;whiteSpace=wrap;html=1;" parent="t8a5REhLXbe7W7D2ZkRc-12" vertex="1">
          <mxGeometry x="30" width="180" height="30" as="geometry">
            <mxRectangle width="180" height="30" as="alternateBounds" />
          </mxGeometry>
        </mxCell>
        <mxCell id="t8a5REhLXbe7W7D2ZkRc-15" value="" style="shape=tableRow;horizontal=0;startSize=0;swimlaneHead=0;swimlaneBody=0;fillColor=none;collapsible=0;dropTarget=0;points=[[0,0.5],[1,0.5]];portConstraint=eastwest;top=0;left=0;right=0;bottom=0;" parent="t8a5REhLXbe7W7D2ZkRc-8" vertex="1">
          <mxGeometry y="120" width="210" height="30" as="geometry" />
        </mxCell>
        <mxCell id="t8a5REhLXbe7W7D2ZkRc-16" value="" style="shape=partialRectangle;connectable=0;fillColor=none;top=0;left=0;bottom=0;right=0;editable=1;overflow=hidden;whiteSpace=wrap;html=1;" parent="t8a5REhLXbe7W7D2ZkRc-15" vertex="1">
          <mxGeometry width="30" height="30" as="geometry">
            <mxRectangle width="30" height="30" as="alternateBounds" />
          </mxGeometry>
        </mxCell>
        <mxCell id="t8a5REhLXbe7W7D2ZkRc-17" value="number_dish&lt;span style=&quot;white-space: pre;&quot;&gt;&#x9;&lt;/span&gt;TINYINT" style="shape=partialRectangle;connectable=0;fillColor=none;top=0;left=0;bottom=0;right=0;align=left;spacingLeft=6;overflow=hidden;whiteSpace=wrap;html=1;" parent="t8a5REhLXbe7W7D2ZkRc-15" vertex="1">
          <mxGeometry x="30" width="180" height="30" as="geometry">
            <mxRectangle width="180" height="30" as="alternateBounds" />
          </mxGeometry>
        </mxCell>
        <mxCell id="t8a5REhLXbe7W7D2ZkRc-21" value="" style="shape=tableRow;horizontal=0;startSize=0;swimlaneHead=0;swimlaneBody=0;fillColor=none;collapsible=0;dropTarget=0;points=[[0,0.5],[1,0.5]];portConstraint=eastwest;top=0;left=0;right=0;bottom=0;" parent="t8a5REhLXbe7W7D2ZkRc-8" vertex="1">
          <mxGeometry y="150" width="210" height="30" as="geometry" />
        </mxCell>
        <mxCell id="t8a5REhLXbe7W7D2ZkRc-22" value="" style="shape=partialRectangle;connectable=0;fillColor=none;top=0;left=0;bottom=0;right=0;editable=1;overflow=hidden;whiteSpace=wrap;html=1;" parent="t8a5REhLXbe7W7D2ZkRc-21" vertex="1">
          <mxGeometry width="30" height="30" as="geometry">
            <mxRectangle width="30" height="30" as="alternateBounds" />
          </mxGeometry>
        </mxCell>
        <mxCell id="t8a5REhLXbe7W7D2ZkRc-23" value="category&lt;span style=&quot;white-space: pre;&quot;&gt;&#x9;&lt;span style=&quot;white-space: pre;&quot;&gt;&#x9;&lt;/span&gt;VARCHAR(&lt;/span&gt;50&lt;span style=&quot;white-space: pre;&quot;&gt;)&lt;/span&gt;" style="shape=partialRectangle;connectable=0;fillColor=none;top=0;left=0;bottom=0;right=0;align=left;spacingLeft=6;overflow=hidden;whiteSpace=wrap;html=1;" parent="t8a5REhLXbe7W7D2ZkRc-21" vertex="1">
          <mxGeometry x="30" width="180" height="30" as="geometry">
            <mxRectangle width="180" height="30" as="alternateBounds" />
          </mxGeometry>
        </mxCell>
        <mxCell id="t8a5REhLXbe7W7D2ZkRc-27" value="" style="shape=tableRow;horizontal=0;startSize=0;swimlaneHead=0;swimlaneBody=0;fillColor=none;collapsible=0;dropTarget=0;points=[[0,0.5],[1,0.5]];portConstraint=eastwest;top=0;left=0;right=0;bottom=0;" parent="t8a5REhLXbe7W7D2ZkRc-8" vertex="1">
          <mxGeometry y="180" width="210" height="30" as="geometry" />
        </mxCell>
        <mxCell id="t8a5REhLXbe7W7D2ZkRc-28" value="" style="shape=partialRectangle;connectable=0;fillColor=none;top=0;left=0;bottom=0;right=0;editable=1;overflow=hidden;whiteSpace=wrap;html=1;" parent="t8a5REhLXbe7W7D2ZkRc-27" vertex="1">
          <mxGeometry width="30" height="30" as="geometry">
            <mxRectangle width="30" height="30" as="alternateBounds" />
          </mxGeometry>
        </mxCell>
        <mxCell id="t8a5REhLXbe7W7D2ZkRc-29" value="taste&lt;span style=&quot;white-space: pre;&quot;&gt;&#x9;&lt;/span&gt;&lt;span style=&quot;white-space: pre;&quot;&gt;&#x9;&lt;/span&gt;VARCHAR(255)" style="shape=partialRectangle;connectable=0;fillColor=none;top=0;left=0;bottom=0;right=0;align=left;spacingLeft=6;overflow=hidden;whiteSpace=wrap;html=1;" parent="t8a5REhLXbe7W7D2ZkRc-27" vertex="1">
          <mxGeometry x="30" width="180" height="30" as="geometry">
            <mxRectangle width="180" height="30" as="alternateBounds" />
          </mxGeometry>
        </mxCell>
        <mxCell id="t8a5REhLXbe7W7D2ZkRc-18" value="" style="shape=tableRow;horizontal=0;startSize=0;swimlaneHead=0;swimlaneBody=0;fillColor=none;collapsible=0;dropTarget=0;points=[[0,0.5],[1,0.5]];portConstraint=eastwest;top=0;left=0;right=0;bottom=0;" parent="t8a5REhLXbe7W7D2ZkRc-8" vertex="1">
          <mxGeometry y="210" width="210" height="30" as="geometry" />
        </mxCell>
        <mxCell id="t8a5REhLXbe7W7D2ZkRc-19" value="" style="shape=partialRectangle;connectable=0;fillColor=none;top=0;left=0;bottom=0;right=0;editable=1;overflow=hidden;whiteSpace=wrap;html=1;" parent="t8a5REhLXbe7W7D2ZkRc-18" vertex="1">
          <mxGeometry width="30" height="30" as="geometry">
            <mxRectangle width="30" height="30" as="alternateBounds" />
          </mxGeometry>
        </mxCell>
        <mxCell id="t8a5REhLXbe7W7D2ZkRc-20" value="updated_id&lt;span style=&quot;white-space: pre;&quot;&gt;&#x9;&lt;/span&gt;TIMESTAMP" style="shape=partialRectangle;connectable=0;fillColor=none;top=0;left=0;bottom=0;right=0;align=left;spacingLeft=6;overflow=hidden;whiteSpace=wrap;html=1;" parent="t8a5REhLXbe7W7D2ZkRc-18" vertex="1">
          <mxGeometry x="30" width="180" height="30" as="geometry">
            <mxRectangle width="180" height="30" as="alternateBounds" />
          </mxGeometry>
        </mxCell>
        <mxCell id="vE3Ha4qgLlNr06Ze3YW5-1" value="" style="shape=tableRow;horizontal=0;startSize=0;swimlaneHead=0;swimlaneBody=0;fillColor=none;collapsible=0;dropTarget=0;points=[[0,0.5],[1,0.5]];portConstraint=eastwest;top=0;left=0;right=0;bottom=0;" parent="t8a5REhLXbe7W7D2ZkRc-8" vertex="1">
          <mxGeometry y="240" width="210" height="30" as="geometry" />
        </mxCell>
        <mxCell id="vE3Ha4qgLlNr06Ze3YW5-2" value="" style="shape=partialRectangle;connectable=0;fillColor=none;top=0;left=0;bottom=0;right=0;editable=1;overflow=hidden;whiteSpace=wrap;html=1;" parent="vE3Ha4qgLlNr06Ze3YW5-1" vertex="1">
          <mxGeometry width="30" height="30" as="geometry">
            <mxRectangle width="30" height="30" as="alternateBounds" />
          </mxGeometry>
        </mxCell>
        <mxCell id="vE3Ha4qgLlNr06Ze3YW5-3" value="cook_time &lt;span style=&quot;white-space: pre;&quot;&gt;&#x9;&lt;/span&gt;INT" style="shape=partialRectangle;connectable=0;fillColor=none;top=0;left=0;bottom=0;right=0;align=left;spacingLeft=6;overflow=hidden;whiteSpace=wrap;html=1;" parent="vE3Ha4qgLlNr06Ze3YW5-1" vertex="1">
          <mxGeometry x="30" width="180" height="30" as="geometry">
            <mxRectangle width="180" height="30" as="alternateBounds" />
          </mxGeometry>
        </mxCell>
        <mxCell id="t8a5REhLXbe7W7D2ZkRc-36" value="" style="edgeStyle=orthogonalEdgeStyle;fontSize=12;html=1;endArrow=ERoneToMany;endFill=0;rounded=0;startArrow=ERone;startFill=0;" parent="vE3Ha4qgLlNr06Ze3YW5-9" source="t8a5REhLXbe7W7D2ZkRc-12" target="D6CuBKRdVGohJh1ABLe_-39" edge="1">
          <mxGeometry width="100" height="100" relative="1" as="geometry">
            <mxPoint x="579" y="149" as="sourcePoint" />
            <mxPoint x="626" y="725" as="targetPoint" />
            <Array as="points">
              <mxPoint x="576" y="104" />
              <mxPoint x="576" y="45" />
            </Array>
          </mxGeometry>
        </mxCell>
        <mxCell id="mBsPnQfpfEU12FAxFHIT-4" value="" style="edgeStyle=orthogonalEdgeStyle;fontSize=12;html=1;endArrow=ERzeroToMany;endFill=1;rounded=0;startArrow=ERoneToMany;startFill=0;" parent="vE3Ha4qgLlNr06Ze3YW5-9" source="D6CuBKRdVGohJh1ABLe_-106" target="D6CuBKRdVGohJh1ABLe_-43" edge="1">
          <mxGeometry width="100" height="100" relative="1" as="geometry">
            <mxPoint x="353" y="390" as="sourcePoint" />
            <mxPoint x="593" y="135" as="targetPoint" />
            <Array as="points">
              <mxPoint x="279" y="472" />
              <mxPoint x="279" y="269" />
              <mxPoint x="614" y="269" />
              <mxPoint x="614" y="104" />
            </Array>
          </mxGeometry>
        </mxCell>
        <mxCell id="mBsPnQfpfEU12FAxFHIT-17" value="" style="edgeStyle=orthogonalEdgeStyle;fontSize=12;html=1;endArrow=ERone;endFill=0;rounded=0;startArrow=ERone;startFill=0;" parent="vE3Ha4qgLlNr06Ze3YW5-9" source="D6CuBKRdVGohJh1ABLe_-119" target="D6CuBKRdVGohJh1ABLe_-115" edge="1">
          <mxGeometry width="100" height="100" relative="1" as="geometry">
            <mxPoint x="359" y="502" as="sourcePoint" />
            <mxPoint x="459" y="402" as="targetPoint" />
            <Array as="points">
              <mxPoint x="334" y="467" />
              <mxPoint x="334" y="592" />
            </Array>
          </mxGeometry>
        </mxCell>
        <mxCell id="mBsPnQfpfEU12FAxFHIT-18" value="Recipe" style="shape=table;startSize=30;container=1;collapsible=1;childLayout=tableLayout;fixedRows=1;rowLines=0;fontStyle=1;align=center;resizeLast=1;html=1;fillColor=#1ba1e2;fontColor=#ffffff;strokeColor=#006EAF;" parent="vE3Ha4qgLlNr06Ze3YW5-9" vertex="1">
          <mxGeometry x="375" y="702" width="234" height="390" as="geometry" />
        </mxCell>
        <mxCell id="mBsPnQfpfEU12FAxFHIT-19" value="" style="shape=tableRow;horizontal=0;startSize=0;swimlaneHead=0;swimlaneBody=0;fillColor=none;collapsible=0;dropTarget=0;points=[[0,0.5],[1,0.5]];portConstraint=eastwest;top=0;left=0;right=0;bottom=1;" parent="mBsPnQfpfEU12FAxFHIT-18" vertex="1">
          <mxGeometry y="30" width="234" height="30" as="geometry" />
        </mxCell>
        <mxCell id="mBsPnQfpfEU12FAxFHIT-20" value="PK" style="shape=partialRectangle;connectable=0;fillColor=none;top=0;left=0;bottom=0;right=0;fontStyle=1;overflow=hidden;whiteSpace=wrap;html=1;" parent="mBsPnQfpfEU12FAxFHIT-19" vertex="1">
          <mxGeometry width="30" height="30" as="geometry">
            <mxRectangle width="30" height="30" as="alternateBounds" />
          </mxGeometry>
        </mxCell>
        <mxCell id="mBsPnQfpfEU12FAxFHIT-21" value="recipe_id&lt;span style=&quot;white-space: pre;&quot;&gt;&#x9;&lt;/span&gt;&lt;span style=&quot;white-space: pre;&quot;&gt;&#x9;&lt;/span&gt;INT" style="shape=partialRectangle;connectable=0;fillColor=none;top=0;left=0;bottom=0;right=0;align=left;spacingLeft=6;fontStyle=5;overflow=hidden;whiteSpace=wrap;html=1;" parent="mBsPnQfpfEU12FAxFHIT-19" vertex="1">
          <mxGeometry x="30" width="204" height="30" as="geometry">
            <mxRectangle width="204" height="30" as="alternateBounds" />
          </mxGeometry>
        </mxCell>
        <mxCell id="7tlb6O7nKomQZ_N-_NIy-22" value="" style="shape=tableRow;horizontal=0;startSize=0;swimlaneHead=0;swimlaneBody=0;fillColor=none;collapsible=0;dropTarget=0;points=[[0,0.5],[1,0.5]];portConstraint=eastwest;top=0;left=0;right=0;bottom=0;" parent="mBsPnQfpfEU12FAxFHIT-18" vertex="1">
          <mxGeometry y="60" width="234" height="30" as="geometry" />
        </mxCell>
        <mxCell id="7tlb6O7nKomQZ_N-_NIy-23" value="FK" style="shape=partialRectangle;connectable=0;fillColor=none;top=0;left=0;bottom=0;right=0;editable=1;overflow=hidden;whiteSpace=wrap;html=1;" parent="7tlb6O7nKomQZ_N-_NIy-22" vertex="1">
          <mxGeometry width="30" height="30" as="geometry">
            <mxRectangle width="30" height="30" as="alternateBounds" />
          </mxGeometry>
        </mxCell>
        <mxCell id="7tlb6O7nKomQZ_N-_NIy-24" value="nutrition_id&lt;span style=&quot;white-space: pre;&quot;&gt;&#x9;&lt;/span&gt;&lt;span style=&quot;white-space: pre;&quot;&gt;&#x9;&lt;/span&gt;INT" style="shape=partialRectangle;connectable=0;fillColor=none;top=0;left=0;bottom=0;right=0;align=left;spacingLeft=6;overflow=hidden;whiteSpace=wrap;html=1;" parent="7tlb6O7nKomQZ_N-_NIy-22" vertex="1">
          <mxGeometry x="30" width="204" height="30" as="geometry">
            <mxRectangle width="204" height="30" as="alternateBounds" />
          </mxGeometry>
        </mxCell>
        <mxCell id="mBsPnQfpfEU12FAxFHIT-22" value="" style="shape=tableRow;horizontal=0;startSize=0;swimlaneHead=0;swimlaneBody=0;fillColor=none;collapsible=0;dropTarget=0;points=[[0,0.5],[1,0.5]];portConstraint=eastwest;top=0;left=0;right=0;bottom=0;" parent="mBsPnQfpfEU12FAxFHIT-18" vertex="1">
          <mxGeometry y="90" width="234" height="30" as="geometry" />
        </mxCell>
        <mxCell id="mBsPnQfpfEU12FAxFHIT-23" value="" style="shape=partialRectangle;connectable=0;fillColor=none;top=0;left=0;bottom=0;right=0;editable=1;overflow=hidden;whiteSpace=wrap;html=1;" parent="mBsPnQfpfEU12FAxFHIT-22" vertex="1">
          <mxGeometry width="30" height="30" as="geometry">
            <mxRectangle width="30" height="30" as="alternateBounds" />
          </mxGeometry>
        </mxCell>
        <mxCell id="mBsPnQfpfEU12FAxFHIT-24" value="recipe_name&lt;span style=&quot;white-space: pre;&quot;&gt;&#x9;&lt;/span&gt;&lt;span style=&quot;white-space: pre;&quot;&gt;&#x9;&lt;/span&gt;VARCHAR(255)" style="shape=partialRectangle;connectable=0;fillColor=none;top=0;left=0;bottom=0;right=0;align=left;spacingLeft=6;overflow=hidden;whiteSpace=wrap;html=1;" parent="mBsPnQfpfEU12FAxFHIT-22" vertex="1">
          <mxGeometry x="30" width="204" height="30" as="geometry">
            <mxRectangle width="204" height="30" as="alternateBounds" />
          </mxGeometry>
        </mxCell>
        <mxCell id="mBsPnQfpfEU12FAxFHIT-25" value="" style="shape=tableRow;horizontal=0;startSize=0;swimlaneHead=0;swimlaneBody=0;fillColor=none;collapsible=0;dropTarget=0;points=[[0,0.5],[1,0.5]];portConstraint=eastwest;top=0;left=0;right=0;bottom=0;" parent="mBsPnQfpfEU12FAxFHIT-18" vertex="1">
          <mxGeometry y="120" width="234" height="30" as="geometry" />
        </mxCell>
        <mxCell id="mBsPnQfpfEU12FAxFHIT-26" value="" style="shape=partialRectangle;connectable=0;fillColor=none;top=0;left=0;bottom=0;right=0;editable=1;overflow=hidden;whiteSpace=wrap;html=1;" parent="mBsPnQfpfEU12FAxFHIT-25" vertex="1">
          <mxGeometry width="30" height="30" as="geometry">
            <mxRectangle width="30" height="30" as="alternateBounds" />
          </mxGeometry>
        </mxCell>
        <mxCell id="mBsPnQfpfEU12FAxFHIT-27" value="description&lt;span style=&quot;white-space: pre;&quot;&gt;&#x9;&lt;/span&gt;&lt;span style=&quot;white-space: pre;&quot;&gt;&#x9;&lt;/span&gt;TEXT" style="shape=partialRectangle;connectable=0;fillColor=none;top=0;left=0;bottom=0;right=0;align=left;spacingLeft=6;overflow=hidden;whiteSpace=wrap;html=1;" parent="mBsPnQfpfEU12FAxFHIT-25" vertex="1">
          <mxGeometry x="30" width="204" height="30" as="geometry">
            <mxRectangle width="204" height="30" as="alternateBounds" />
          </mxGeometry>
        </mxCell>
        <mxCell id="mBsPnQfpfEU12FAxFHIT-31" value="" style="shape=tableRow;horizontal=0;startSize=0;swimlaneHead=0;swimlaneBody=0;fillColor=none;collapsible=0;dropTarget=0;points=[[0,0.5],[1,0.5]];portConstraint=eastwest;top=0;left=0;right=0;bottom=0;" parent="mBsPnQfpfEU12FAxFHIT-18" vertex="1">
          <mxGeometry y="150" width="234" height="30" as="geometry" />
        </mxCell>
        <mxCell id="mBsPnQfpfEU12FAxFHIT-32" value="" style="shape=partialRectangle;connectable=0;fillColor=none;top=0;left=0;bottom=0;right=0;editable=1;overflow=hidden;whiteSpace=wrap;html=1;" parent="mBsPnQfpfEU12FAxFHIT-31" vertex="1">
          <mxGeometry width="30" height="30" as="geometry">
            <mxRectangle width="30" height="30" as="alternateBounds" />
          </mxGeometry>
        </mxCell>
        <mxCell id="mBsPnQfpfEU12FAxFHIT-33" value="instructions&lt;span style=&quot;white-space: pre;&quot;&gt;&#x9;&lt;/span&gt;&lt;span style=&quot;white-space: pre;&quot;&gt;&#x9;&lt;/span&gt;TEXT" style="shape=partialRectangle;connectable=0;fillColor=none;top=0;left=0;bottom=0;right=0;align=left;spacingLeft=6;overflow=hidden;whiteSpace=wrap;html=1;" parent="mBsPnQfpfEU12FAxFHIT-31" vertex="1">
          <mxGeometry x="30" width="204" height="30" as="geometry">
            <mxRectangle width="204" height="30" as="alternateBounds" />
          </mxGeometry>
        </mxCell>
        <mxCell id="mBsPnQfpfEU12FAxFHIT-34" value="" style="shape=tableRow;horizontal=0;startSize=0;swimlaneHead=0;swimlaneBody=0;fillColor=none;collapsible=0;dropTarget=0;points=[[0,0.5],[1,0.5]];portConstraint=eastwest;top=0;left=0;right=0;bottom=0;" parent="mBsPnQfpfEU12FAxFHIT-18" vertex="1">
          <mxGeometry y="180" width="234" height="30" as="geometry" />
        </mxCell>
        <mxCell id="mBsPnQfpfEU12FAxFHIT-35" value="" style="shape=partialRectangle;connectable=0;fillColor=none;top=0;left=0;bottom=0;right=0;editable=1;overflow=hidden;whiteSpace=wrap;html=1;" parent="mBsPnQfpfEU12FAxFHIT-34" vertex="1">
          <mxGeometry width="30" height="30" as="geometry">
            <mxRectangle width="30" height="30" as="alternateBounds" />
          </mxGeometry>
        </mxCell>
        <mxCell id="mBsPnQfpfEU12FAxFHIT-36" value="preparation_time&lt;span style=&quot;white-space: pre;&quot;&gt;&#x9;&lt;/span&gt;INT" style="shape=partialRectangle;connectable=0;fillColor=none;top=0;left=0;bottom=0;right=0;align=left;spacingLeft=6;overflow=hidden;whiteSpace=wrap;html=1;" parent="mBsPnQfpfEU12FAxFHIT-34" vertex="1">
          <mxGeometry x="30" width="204" height="30" as="geometry">
            <mxRectangle width="204" height="30" as="alternateBounds" />
          </mxGeometry>
        </mxCell>
        <mxCell id="mBsPnQfpfEU12FAxFHIT-37" value="" style="shape=tableRow;horizontal=0;startSize=0;swimlaneHead=0;swimlaneBody=0;fillColor=none;collapsible=0;dropTarget=0;points=[[0,0.5],[1,0.5]];portConstraint=eastwest;top=0;left=0;right=0;bottom=0;" parent="mBsPnQfpfEU12FAxFHIT-18" vertex="1">
          <mxGeometry y="210" width="234" height="30" as="geometry" />
        </mxCell>
        <mxCell id="mBsPnQfpfEU12FAxFHIT-38" value="" style="shape=partialRectangle;connectable=0;fillColor=none;top=0;left=0;bottom=0;right=0;editable=1;overflow=hidden;whiteSpace=wrap;html=1;" parent="mBsPnQfpfEU12FAxFHIT-37" vertex="1">
          <mxGeometry width="30" height="30" as="geometry">
            <mxRectangle width="30" height="30" as="alternateBounds" />
          </mxGeometry>
        </mxCell>
        <mxCell id="mBsPnQfpfEU12FAxFHIT-39" value="cook_time&lt;span style=&quot;white-space: pre;&quot;&gt;&#x9;&lt;/span&gt;&lt;span style=&quot;white-space: pre;&quot;&gt;&#x9;&lt;/span&gt;INT" style="shape=partialRectangle;connectable=0;fillColor=none;top=0;left=0;bottom=0;right=0;align=left;spacingLeft=6;overflow=hidden;whiteSpace=wrap;html=1;" parent="mBsPnQfpfEU12FAxFHIT-37" vertex="1">
          <mxGeometry x="30" width="204" height="30" as="geometry">
            <mxRectangle width="204" height="30" as="alternateBounds" />
          </mxGeometry>
        </mxCell>
        <mxCell id="mBsPnQfpfEU12FAxFHIT-40" value="" style="shape=tableRow;horizontal=0;startSize=0;swimlaneHead=0;swimlaneBody=0;fillColor=none;collapsible=0;dropTarget=0;points=[[0,0.5],[1,0.5]];portConstraint=eastwest;top=0;left=0;right=0;bottom=0;" parent="mBsPnQfpfEU12FAxFHIT-18" vertex="1">
          <mxGeometry y="240" width="234" height="30" as="geometry" />
        </mxCell>
        <mxCell id="mBsPnQfpfEU12FAxFHIT-41" value="" style="shape=partialRectangle;connectable=0;fillColor=none;top=0;left=0;bottom=0;right=0;editable=1;overflow=hidden;whiteSpace=wrap;html=1;" parent="mBsPnQfpfEU12FAxFHIT-40" vertex="1">
          <mxGeometry width="30" height="30" as="geometry">
            <mxRectangle width="30" height="30" as="alternateBounds" />
          </mxGeometry>
        </mxCell>
        <mxCell id="mBsPnQfpfEU12FAxFHIT-42" value="serving_size&lt;span style=&quot;white-space: pre;&quot;&gt;&#x9;&lt;/span&gt;&lt;span style=&quot;white-space: pre;&quot;&gt;&#x9;&lt;/span&gt;INT" style="shape=partialRectangle;connectable=0;fillColor=none;top=0;left=0;bottom=0;right=0;align=left;spacingLeft=6;overflow=hidden;whiteSpace=wrap;html=1;" parent="mBsPnQfpfEU12FAxFHIT-40" vertex="1">
          <mxGeometry x="30" width="204" height="30" as="geometry">
            <mxRectangle width="204" height="30" as="alternateBounds" />
          </mxGeometry>
        </mxCell>
        <mxCell id="mBsPnQfpfEU12FAxFHIT-43" value="" style="shape=tableRow;horizontal=0;startSize=0;swimlaneHead=0;swimlaneBody=0;fillColor=none;collapsible=0;dropTarget=0;points=[[0,0.5],[1,0.5]];portConstraint=eastwest;top=0;left=0;right=0;bottom=0;" parent="mBsPnQfpfEU12FAxFHIT-18" vertex="1">
          <mxGeometry y="270" width="234" height="30" as="geometry" />
        </mxCell>
        <mxCell id="mBsPnQfpfEU12FAxFHIT-44" value="" style="shape=partialRectangle;connectable=0;fillColor=none;top=0;left=0;bottom=0;right=0;editable=1;overflow=hidden;whiteSpace=wrap;html=1;" parent="mBsPnQfpfEU12FAxFHIT-43" vertex="1">
          <mxGeometry width="30" height="30" as="geometry">
            <mxRectangle width="30" height="30" as="alternateBounds" />
          </mxGeometry>
        </mxCell>
        <mxCell id="mBsPnQfpfEU12FAxFHIT-45" value="created_at&lt;span style=&quot;white-space: pre;&quot;&gt;&#x9;&lt;/span&gt;&lt;span style=&quot;white-space: pre;&quot;&gt;&#x9;&lt;/span&gt;TIMESTAMP" style="shape=partialRectangle;connectable=0;fillColor=none;top=0;left=0;bottom=0;right=0;align=left;spacingLeft=6;overflow=hidden;whiteSpace=wrap;html=1;" parent="mBsPnQfpfEU12FAxFHIT-43" vertex="1">
          <mxGeometry x="30" width="204" height="30" as="geometry">
            <mxRectangle width="204" height="30" as="alternateBounds" />
          </mxGeometry>
        </mxCell>
        <mxCell id="vE3Ha4qgLlNr06Ze3YW5-61" value="" style="shape=tableRow;horizontal=0;startSize=0;swimlaneHead=0;swimlaneBody=0;fillColor=none;collapsible=0;dropTarget=0;points=[[0,0.5],[1,0.5]];portConstraint=eastwest;top=0;left=0;right=0;bottom=0;" parent="mBsPnQfpfEU12FAxFHIT-18" vertex="1">
          <mxGeometry y="300" width="234" height="30" as="geometry" />
        </mxCell>
        <mxCell id="vE3Ha4qgLlNr06Ze3YW5-62" value="" style="shape=partialRectangle;connectable=0;fillColor=none;top=0;left=0;bottom=0;right=0;editable=1;overflow=hidden;whiteSpace=wrap;html=1;" parent="vE3Ha4qgLlNr06Ze3YW5-61" vertex="1">
          <mxGeometry width="30" height="30" as="geometry">
            <mxRectangle width="30" height="30" as="alternateBounds" />
          </mxGeometry>
        </mxCell>
        <mxCell id="vE3Ha4qgLlNr06Ze3YW5-63" value="url_image&lt;span style=&quot;white-space: pre;&quot;&gt;&#x9;&lt;/span&gt;&lt;span style=&quot;white-space: pre;&quot;&gt;&#x9;&lt;/span&gt;VARCHAR(255)" style="shape=partialRectangle;connectable=0;fillColor=none;top=0;left=0;bottom=0;right=0;align=left;spacingLeft=6;overflow=hidden;whiteSpace=wrap;html=1;" parent="vE3Ha4qgLlNr06Ze3YW5-61" vertex="1">
          <mxGeometry x="30" width="204" height="30" as="geometry">
            <mxRectangle width="204" height="30" as="alternateBounds" />
          </mxGeometry>
        </mxCell>
        <mxCell id="vE3Ha4qgLlNr06Ze3YW5-58" value="" style="shape=tableRow;horizontal=0;startSize=0;swimlaneHead=0;swimlaneBody=0;fillColor=none;collapsible=0;dropTarget=0;points=[[0,0.5],[1,0.5]];portConstraint=eastwest;top=0;left=0;right=0;bottom=0;" parent="mBsPnQfpfEU12FAxFHIT-18" vertex="1">
          <mxGeometry y="330" width="234" height="30" as="geometry" />
        </mxCell>
        <mxCell id="vE3Ha4qgLlNr06Ze3YW5-59" value="" style="shape=partialRectangle;connectable=0;fillColor=none;top=0;left=0;bottom=0;right=0;editable=1;overflow=hidden;whiteSpace=wrap;html=1;" parent="vE3Ha4qgLlNr06Ze3YW5-58" vertex="1">
          <mxGeometry width="30" height="30" as="geometry">
            <mxRectangle width="30" height="30" as="alternateBounds" />
          </mxGeometry>
        </mxCell>
        <mxCell id="vE3Ha4qgLlNr06Ze3YW5-60" value="url_video&lt;span style=&quot;white-space: pre;&quot;&gt;&#x9;&lt;/span&gt;&lt;span style=&quot;white-space: pre;&quot;&gt;&#x9;&lt;/span&gt;&lt;span style=&quot;white-space: pre;&quot;&gt;&#x9;&lt;/span&gt;VARCHAR(255)" style="shape=partialRectangle;connectable=0;fillColor=none;top=0;left=0;bottom=0;right=0;align=left;spacingLeft=6;overflow=hidden;whiteSpace=wrap;html=1;" parent="vE3Ha4qgLlNr06Ze3YW5-58" vertex="1">
          <mxGeometry x="30" width="204" height="30" as="geometry">
            <mxRectangle width="204" height="30" as="alternateBounds" />
          </mxGeometry>
        </mxCell>
        <mxCell id="mBsPnQfpfEU12FAxFHIT-28" value="" style="shape=tableRow;horizontal=0;startSize=0;swimlaneHead=0;swimlaneBody=0;fillColor=none;collapsible=0;dropTarget=0;points=[[0,0.5],[1,0.5]];portConstraint=eastwest;top=0;left=0;right=0;bottom=0;" parent="mBsPnQfpfEU12FAxFHIT-18" vertex="1">
          <mxGeometry y="360" width="234" height="30" as="geometry" />
        </mxCell>
        <mxCell id="mBsPnQfpfEU12FAxFHIT-29" value="" style="shape=partialRectangle;connectable=0;fillColor=none;top=0;left=0;bottom=0;right=0;editable=1;overflow=hidden;whiteSpace=wrap;html=1;" parent="mBsPnQfpfEU12FAxFHIT-28" vertex="1">
          <mxGeometry width="30" height="30" as="geometry">
            <mxRectangle width="30" height="30" as="alternateBounds" />
          </mxGeometry>
        </mxCell>
        <mxCell id="mBsPnQfpfEU12FAxFHIT-30" value="updated_at&lt;span style=&quot;white-space: pre;&quot;&gt;&#x9;&lt;/span&gt;&lt;span style=&quot;white-space: pre;&quot;&gt;&#x9;&lt;/span&gt;TIMESTAMP" style="shape=partialRectangle;connectable=0;fillColor=none;top=0;left=0;bottom=0;right=0;align=left;spacingLeft=6;overflow=hidden;whiteSpace=wrap;html=1;" parent="mBsPnQfpfEU12FAxFHIT-28" vertex="1">
          <mxGeometry x="30" width="204" height="30" as="geometry">
            <mxRectangle width="204" height="30" as="alternateBounds" />
          </mxGeometry>
        </mxCell>
        <mxCell id="7tlb6O7nKomQZ_N-_NIy-25" value="" style="edgeStyle=orthogonalEdgeStyle;fontSize=12;html=1;endArrow=ERone;endFill=0;rounded=0;startArrow=ERone;startFill=0;" parent="vE3Ha4qgLlNr06Ze3YW5-9" source="7tlb6O7nKomQZ_N-_NIy-22" target="D6CuBKRdVGohJh1ABLe_-119" edge="1">
          <mxGeometry width="100" height="100" relative="1" as="geometry">
            <mxPoint x="433" y="719" as="sourcePoint" />
            <mxPoint x="533" y="619" as="targetPoint" />
            <Array as="points">
              <mxPoint x="657" y="777" />
              <mxPoint x="657" y="469" />
            </Array>
          </mxGeometry>
        </mxCell>
        <mxCell id="7tlb6O7nKomQZ_N-_NIy-29" value="" style="edgeStyle=orthogonalEdgeStyle;fontSize=12;html=1;endArrow=ERone;endFill=0;rounded=0;startArrow=ERone;startFill=0;" parent="vE3Ha4qgLlNr06Ze3YW5-9" source="mBsPnQfpfEU12FAxFHIT-19" target="mBsPnQfpfEU12FAxFHIT-49" edge="1">
          <mxGeometry width="100" height="100" relative="1" as="geometry">
            <mxPoint x="914" y="866" as="sourcePoint" />
            <mxPoint x="175" y="698" as="targetPoint" />
            <Array as="points">
              <mxPoint x="309" y="742" />
              <mxPoint x="309" y="742" />
            </Array>
          </mxGeometry>
        </mxCell>
        <mxCell id="vE3Ha4qgLlNr06Ze3YW5-8" value="" style="group" parent="1" vertex="1" connectable="0">
          <mxGeometry x="-827" y="65" width="786" height="1103" as="geometry" />
        </mxCell>
        <mxCell id="vE3Ha4qgLlNr06Ze3YW5-7" value="" style="group;fillColor=#fff2cc;strokeColor=#d6b656;container=0;" parent="vE3Ha4qgLlNr06Ze3YW5-8" vertex="1" connectable="0">
          <mxGeometry width="786" height="1103" as="geometry" />
        </mxCell>
        <mxCell id="D6CuBKRdVGohJh1ABLe_-26" value="User" style="shape=table;startSize=30;container=1;collapsible=1;childLayout=tableLayout;fixedRows=1;rowLines=0;fontStyle=1;align=center;resizeLast=1;html=1;fillColor=#ffff88;strokeColor=#36393d;" parent="vE3Ha4qgLlNr06Ze3YW5-8" vertex="1">
          <mxGeometry x="414" width="234" height="330" as="geometry">
            <mxRectangle width="70" height="30" as="alternateBounds" />
          </mxGeometry>
        </mxCell>
        <mxCell id="D6CuBKRdVGohJh1ABLe_-27" value="" style="shape=tableRow;horizontal=0;startSize=0;swimlaneHead=0;swimlaneBody=0;fillColor=none;collapsible=0;dropTarget=0;points=[[0,0.5],[1,0.5]];portConstraint=eastwest;top=0;left=0;right=0;bottom=1;" parent="D6CuBKRdVGohJh1ABLe_-26" vertex="1">
          <mxGeometry y="30" width="234" height="30" as="geometry" />
        </mxCell>
        <mxCell id="D6CuBKRdVGohJh1ABLe_-28" value="PK" style="shape=partialRectangle;connectable=0;fillColor=none;top=0;left=0;bottom=0;right=0;fontStyle=1;overflow=hidden;whiteSpace=wrap;html=1;" parent="D6CuBKRdVGohJh1ABLe_-27" vertex="1">
          <mxGeometry width="30" height="30" as="geometry">
            <mxRectangle width="30" height="30" as="alternateBounds" />
          </mxGeometry>
        </mxCell>
        <mxCell id="D6CuBKRdVGohJh1ABLe_-29" value="user_id&lt;span style=&quot;white-space: pre;&quot;&gt;&#x9;&lt;span style=&quot;white-space: pre;&quot;&gt;&#x9;&lt;/span&gt;&lt;span style=&quot;white-space: pre;&quot;&gt;&#x9;&lt;/span&gt;INT&lt;/span&gt;" style="shape=partialRectangle;connectable=0;fillColor=none;top=0;left=0;bottom=0;right=0;align=left;spacingLeft=6;fontStyle=5;overflow=hidden;whiteSpace=wrap;html=1;" parent="D6CuBKRdVGohJh1ABLe_-27" vertex="1">
          <mxGeometry x="30" width="204" height="30" as="geometry">
            <mxRectangle width="204" height="30" as="alternateBounds" />
          </mxGeometry>
        </mxCell>
        <mxCell id="D6CuBKRdVGohJh1ABLe_-30" value="" style="shape=tableRow;horizontal=0;startSize=0;swimlaneHead=0;swimlaneBody=0;fillColor=none;collapsible=0;dropTarget=0;points=[[0,0.5],[1,0.5]];portConstraint=eastwest;top=0;left=0;right=0;bottom=0;" parent="D6CuBKRdVGohJh1ABLe_-26" vertex="1">
          <mxGeometry y="60" width="234" height="30" as="geometry" />
        </mxCell>
        <mxCell id="D6CuBKRdVGohJh1ABLe_-31" value="" style="shape=partialRectangle;connectable=0;fillColor=none;top=0;left=0;bottom=0;right=0;editable=1;overflow=hidden;whiteSpace=wrap;html=1;" parent="D6CuBKRdVGohJh1ABLe_-30" vertex="1">
          <mxGeometry width="30" height="30" as="geometry">
            <mxRectangle width="30" height="30" as="alternateBounds" />
          </mxGeometry>
        </mxCell>
        <mxCell id="D6CuBKRdVGohJh1ABLe_-32" value="user_name&lt;span style=&quot;white-space: pre;&quot;&gt;&#x9;&lt;/span&gt;&lt;span style=&quot;white-space: pre;&quot;&gt;&#x9;&lt;/span&gt;VARCHAR(50)" style="shape=partialRectangle;connectable=0;fillColor=none;top=0;left=0;bottom=0;right=0;align=left;spacingLeft=6;overflow=hidden;whiteSpace=wrap;html=1;" parent="D6CuBKRdVGohJh1ABLe_-30" vertex="1">
          <mxGeometry x="30" width="204" height="30" as="geometry">
            <mxRectangle width="204" height="30" as="alternateBounds" />
          </mxGeometry>
        </mxCell>
        <mxCell id="D6CuBKRdVGohJh1ABLe_-33" value="" style="shape=tableRow;horizontal=0;startSize=0;swimlaneHead=0;swimlaneBody=0;fillColor=none;collapsible=0;dropTarget=0;points=[[0,0.5],[1,0.5]];portConstraint=eastwest;top=0;left=0;right=0;bottom=0;" parent="D6CuBKRdVGohJh1ABLe_-26" vertex="1">
          <mxGeometry y="90" width="234" height="30" as="geometry" />
        </mxCell>
        <mxCell id="D6CuBKRdVGohJh1ABLe_-34" value="" style="shape=partialRectangle;connectable=0;fillColor=none;top=0;left=0;bottom=0;right=0;editable=1;overflow=hidden;whiteSpace=wrap;html=1;" parent="D6CuBKRdVGohJh1ABLe_-33" vertex="1">
          <mxGeometry width="30" height="30" as="geometry">
            <mxRectangle width="30" height="30" as="alternateBounds" />
          </mxGeometry>
        </mxCell>
        <mxCell id="D6CuBKRdVGohJh1ABLe_-35" value="password&lt;span style=&quot;white-space: pre;&quot;&gt;&#x9;&lt;/span&gt;&lt;span style=&quot;white-space: pre;&quot;&gt;&#x9;&lt;/span&gt;&lt;span style=&quot;white-space: pre;&quot;&gt;&#x9;&lt;/span&gt;VARCHAR(255)" style="shape=partialRectangle;connectable=0;fillColor=none;top=0;left=0;bottom=0;right=0;align=left;spacingLeft=6;overflow=hidden;whiteSpace=wrap;html=1;" parent="D6CuBKRdVGohJh1ABLe_-33" vertex="1">
          <mxGeometry x="30" width="204" height="30" as="geometry">
            <mxRectangle width="204" height="30" as="alternateBounds" />
          </mxGeometry>
        </mxCell>
        <mxCell id="wuyaVqw0lIHpQmKnbZ-E-2" value="" style="shape=tableRow;horizontal=0;startSize=0;swimlaneHead=0;swimlaneBody=0;fillColor=none;collapsible=0;dropTarget=0;points=[[0,0.5],[1,0.5]];portConstraint=eastwest;top=0;left=0;right=0;bottom=0;" parent="D6CuBKRdVGohJh1ABLe_-26" vertex="1">
          <mxGeometry y="120" width="234" height="30" as="geometry" />
        </mxCell>
        <mxCell id="wuyaVqw0lIHpQmKnbZ-E-3" value="" style="shape=partialRectangle;connectable=0;fillColor=none;top=0;left=0;bottom=0;right=0;editable=1;overflow=hidden;whiteSpace=wrap;html=1;" parent="wuyaVqw0lIHpQmKnbZ-E-2" vertex="1">
          <mxGeometry width="30" height="30" as="geometry">
            <mxRectangle width="30" height="30" as="alternateBounds" />
          </mxGeometry>
        </mxCell>
        <mxCell id="wuyaVqw0lIHpQmKnbZ-E-4" value="first_name&lt;span style=&quot;white-space: pre;&quot;&gt;&#x9;&lt;/span&gt;&lt;span style=&quot;white-space: pre;&quot;&gt;&#x9;&lt;/span&gt;VARCHAR(255)" style="shape=partialRectangle;connectable=0;fillColor=none;top=0;left=0;bottom=0;right=0;align=left;spacingLeft=6;overflow=hidden;whiteSpace=wrap;html=1;" parent="wuyaVqw0lIHpQmKnbZ-E-2" vertex="1">
          <mxGeometry x="30" width="204" height="30" as="geometry">
            <mxRectangle width="204" height="30" as="alternateBounds" />
          </mxGeometry>
        </mxCell>
        <mxCell id="wuyaVqw0lIHpQmKnbZ-E-5" value="" style="shape=tableRow;horizontal=0;startSize=0;swimlaneHead=0;swimlaneBody=0;fillColor=none;collapsible=0;dropTarget=0;points=[[0,0.5],[1,0.5]];portConstraint=eastwest;top=0;left=0;right=0;bottom=0;" parent="D6CuBKRdVGohJh1ABLe_-26" vertex="1">
          <mxGeometry y="150" width="234" height="30" as="geometry" />
        </mxCell>
        <mxCell id="wuyaVqw0lIHpQmKnbZ-E-6" value="&lt;span style=&quot;white-space: pre;&quot;&gt;&#x9;&lt;/span&gt;&lt;span style=&quot;white-space: pre;&quot;&gt;&#x9;&lt;/span&gt;" style="shape=partialRectangle;connectable=0;fillColor=none;top=0;left=0;bottom=0;right=0;editable=1;overflow=hidden;whiteSpace=wrap;html=1;" parent="wuyaVqw0lIHpQmKnbZ-E-5" vertex="1">
          <mxGeometry width="30" height="30" as="geometry">
            <mxRectangle width="30" height="30" as="alternateBounds" />
          </mxGeometry>
        </mxCell>
        <mxCell id="wuyaVqw0lIHpQmKnbZ-E-7" value="last_name&lt;span style=&quot;white-space: pre;&quot;&gt;&#x9;&lt;/span&gt;&lt;span style=&quot;white-space: pre;&quot;&gt;&#x9;&lt;/span&gt;VARCHAR(255)&lt;span style=&quot;white-space: pre;&quot;&gt;&#x9;&lt;/span&gt;" style="shape=partialRectangle;connectable=0;fillColor=none;top=0;left=0;bottom=0;right=0;align=left;spacingLeft=6;overflow=hidden;whiteSpace=wrap;html=1;" parent="wuyaVqw0lIHpQmKnbZ-E-5" vertex="1">
          <mxGeometry x="30" width="204" height="30" as="geometry">
            <mxRectangle width="204" height="30" as="alternateBounds" />
          </mxGeometry>
        </mxCell>
        <mxCell id="wuyaVqw0lIHpQmKnbZ-E-8" value="" style="shape=tableRow;horizontal=0;startSize=0;swimlaneHead=0;swimlaneBody=0;fillColor=none;collapsible=0;dropTarget=0;points=[[0,0.5],[1,0.5]];portConstraint=eastwest;top=0;left=0;right=0;bottom=0;" parent="D6CuBKRdVGohJh1ABLe_-26" vertex="1">
          <mxGeometry y="180" width="234" height="30" as="geometry" />
        </mxCell>
        <mxCell id="wuyaVqw0lIHpQmKnbZ-E-9" value="" style="shape=partialRectangle;connectable=0;fillColor=none;top=0;left=0;bottom=0;right=0;editable=1;overflow=hidden;whiteSpace=wrap;html=1;" parent="wuyaVqw0lIHpQmKnbZ-E-8" vertex="1">
          <mxGeometry width="30" height="30" as="geometry">
            <mxRectangle width="30" height="30" as="alternateBounds" />
          </mxGeometry>
        </mxCell>
        <mxCell id="wuyaVqw0lIHpQmKnbZ-E-10" value="date_of_birth&lt;span style=&quot;white-space: pre;&quot;&gt;&#x9;&lt;/span&gt;&lt;span style=&quot;white-space: pre;&quot;&gt;&#x9;&lt;/span&gt;DATE" style="shape=partialRectangle;connectable=0;fillColor=none;top=0;left=0;bottom=0;right=0;align=left;spacingLeft=6;overflow=hidden;whiteSpace=wrap;html=1;" parent="wuyaVqw0lIHpQmKnbZ-E-8" vertex="1">
          <mxGeometry x="30" width="204" height="30" as="geometry">
            <mxRectangle width="204" height="30" as="alternateBounds" />
          </mxGeometry>
        </mxCell>
        <mxCell id="wuyaVqw0lIHpQmKnbZ-E-11" value="" style="shape=tableRow;horizontal=0;startSize=0;swimlaneHead=0;swimlaneBody=0;fillColor=none;collapsible=0;dropTarget=0;points=[[0,0.5],[1,0.5]];portConstraint=eastwest;top=0;left=0;right=0;bottom=0;" parent="D6CuBKRdVGohJh1ABLe_-26" vertex="1">
          <mxGeometry y="210" width="234" height="30" as="geometry" />
        </mxCell>
        <mxCell id="wuyaVqw0lIHpQmKnbZ-E-12" value="" style="shape=partialRectangle;connectable=0;fillColor=none;top=0;left=0;bottom=0;right=0;editable=1;overflow=hidden;whiteSpace=wrap;html=1;" parent="wuyaVqw0lIHpQmKnbZ-E-11" vertex="1">
          <mxGeometry width="30" height="30" as="geometry">
            <mxRectangle width="30" height="30" as="alternateBounds" />
          </mxGeometry>
        </mxCell>
        <mxCell id="wuyaVqw0lIHpQmKnbZ-E-13" value="email&lt;span style=&quot;white-space: pre;&quot;&gt;&#x9;&lt;/span&gt;&lt;span style=&quot;white-space: pre;&quot;&gt;&#x9;&lt;/span&gt;&lt;span style=&quot;white-space: pre;&quot;&gt;&#x9;&lt;/span&gt;VARCHAR(100)&lt;span style=&quot;white-space: pre;&quot;&gt;&#x9;&lt;/span&gt;" style="shape=partialRectangle;connectable=0;fillColor=none;top=0;left=0;bottom=0;right=0;align=left;spacingLeft=6;overflow=hidden;whiteSpace=wrap;html=1;" parent="wuyaVqw0lIHpQmKnbZ-E-11" vertex="1">
          <mxGeometry x="30" width="204" height="30" as="geometry">
            <mxRectangle width="204" height="30" as="alternateBounds" />
          </mxGeometry>
        </mxCell>
        <mxCell id="wuyaVqw0lIHpQmKnbZ-E-14" value="" style="shape=tableRow;horizontal=0;startSize=0;swimlaneHead=0;swimlaneBody=0;fillColor=none;collapsible=0;dropTarget=0;points=[[0,0.5],[1,0.5]];portConstraint=eastwest;top=0;left=0;right=0;bottom=0;" parent="D6CuBKRdVGohJh1ABLe_-26" vertex="1">
          <mxGeometry y="240" width="234" height="30" as="geometry" />
        </mxCell>
        <mxCell id="wuyaVqw0lIHpQmKnbZ-E-15" value="" style="shape=partialRectangle;connectable=0;fillColor=none;top=0;left=0;bottom=0;right=0;editable=1;overflow=hidden;whiteSpace=wrap;html=1;" parent="wuyaVqw0lIHpQmKnbZ-E-14" vertex="1">
          <mxGeometry width="30" height="30" as="geometry">
            <mxRectangle width="30" height="30" as="alternateBounds" />
          </mxGeometry>
        </mxCell>
        <mxCell id="wuyaVqw0lIHpQmKnbZ-E-16" value="phone_number&lt;span style=&quot;white-space: pre;&quot;&gt;&#x9;&lt;/span&gt;VARCHAR(12)" style="shape=partialRectangle;connectable=0;fillColor=none;top=0;left=0;bottom=0;right=0;align=left;spacingLeft=6;overflow=hidden;whiteSpace=wrap;html=1;" parent="wuyaVqw0lIHpQmKnbZ-E-14" vertex="1">
          <mxGeometry x="30" width="204" height="30" as="geometry">
            <mxRectangle width="204" height="30" as="alternateBounds" />
          </mxGeometry>
        </mxCell>
        <mxCell id="D6CuBKRdVGohJh1ABLe_-36" value="" style="shape=tableRow;horizontal=0;startSize=0;swimlaneHead=0;swimlaneBody=0;fillColor=none;collapsible=0;dropTarget=0;points=[[0,0.5],[1,0.5]];portConstraint=eastwest;top=0;left=0;right=0;bottom=0;" parent="D6CuBKRdVGohJh1ABLe_-26" vertex="1">
          <mxGeometry y="270" width="234" height="30" as="geometry" />
        </mxCell>
        <mxCell id="D6CuBKRdVGohJh1ABLe_-37" value="FK" style="shape=partialRectangle;connectable=0;fillColor=none;top=0;left=0;bottom=0;right=0;editable=1;overflow=hidden;whiteSpace=wrap;html=1;" parent="D6CuBKRdVGohJh1ABLe_-36" vertex="1">
          <mxGeometry width="30" height="30" as="geometry">
            <mxRectangle width="30" height="30" as="alternateBounds" />
          </mxGeometry>
        </mxCell>
        <mxCell id="D6CuBKRdVGohJh1ABLe_-38" value="address&lt;span style=&quot;white-space: pre;&quot;&gt;&#x9;&lt;/span&gt;&lt;span style=&quot;white-space: pre;&quot;&gt;&#x9;&lt;/span&gt;&lt;span style=&quot;white-space: pre;&quot;&gt;&#x9;&lt;/span&gt;VARCHAR(255)" style="shape=partialRectangle;connectable=0;fillColor=none;top=0;left=0;bottom=0;right=0;align=left;spacingLeft=6;overflow=hidden;whiteSpace=wrap;html=1;" parent="D6CuBKRdVGohJh1ABLe_-36" vertex="1">
          <mxGeometry x="30" width="204" height="30" as="geometry">
            <mxRectangle width="204" height="30" as="alternateBounds" />
          </mxGeometry>
        </mxCell>
        <mxCell id="wuyaVqw0lIHpQmKnbZ-E-53" value="" style="shape=tableRow;horizontal=0;startSize=0;swimlaneHead=0;swimlaneBody=0;fillColor=none;collapsible=0;dropTarget=0;points=[[0,0.5],[1,0.5]];portConstraint=eastwest;top=0;left=0;right=0;bottom=0;" parent="D6CuBKRdVGohJh1ABLe_-26" vertex="1">
          <mxGeometry y="300" width="234" height="30" as="geometry" />
        </mxCell>
        <mxCell id="wuyaVqw0lIHpQmKnbZ-E-54" value="" style="shape=partialRectangle;connectable=0;fillColor=none;top=0;left=0;bottom=0;right=0;editable=1;overflow=hidden;whiteSpace=wrap;html=1;" parent="wuyaVqw0lIHpQmKnbZ-E-53" vertex="1">
          <mxGeometry width="30" height="30" as="geometry">
            <mxRectangle width="30" height="30" as="alternateBounds" />
          </mxGeometry>
        </mxCell>
        <mxCell id="wuyaVqw0lIHpQmKnbZ-E-55" value="gender&lt;span style=&quot;white-space: pre;&quot;&gt;&#x9;&lt;/span&gt;&lt;span style=&quot;white-space: pre;&quot;&gt;&#x9;&lt;/span&gt;&lt;span style=&quot;white-space: pre;&quot;&gt;&#x9;&lt;/span&gt;VARCHAR(10)" style="shape=partialRectangle;connectable=0;fillColor=none;top=0;left=0;bottom=0;right=0;align=left;spacingLeft=6;overflow=hidden;whiteSpace=wrap;html=1;" parent="wuyaVqw0lIHpQmKnbZ-E-53" vertex="1">
          <mxGeometry x="30" width="204" height="30" as="geometry">
            <mxRectangle width="204" height="30" as="alternateBounds" />
          </mxGeometry>
        </mxCell>
        <mxCell id="wuyaVqw0lIHpQmKnbZ-E-56" style="edgeStyle=orthogonalEdgeStyle;rounded=0;orthogonalLoop=1;jettySize=auto;html=1;exitX=0.5;exitY=0;exitDx=0;exitDy=0;" parent="vE3Ha4qgLlNr06Ze3YW5-8" source="D6CuBKRdVGohJh1ABLe_-79" target="D6CuBKRdVGohJh1ABLe_-26" edge="1">
          <mxGeometry relative="1" as="geometry">
            <Array as="points">
              <mxPoint x="622" y="316" />
              <mxPoint x="622" y="316" />
            </Array>
          </mxGeometry>
        </mxCell>
        <mxCell id="D6CuBKRdVGohJh1ABLe_-79" value="Single_User" style="shape=table;startSize=30;container=1;collapsible=1;childLayout=tableLayout;fixedRows=1;rowLines=0;fontStyle=1;align=center;resizeLast=1;html=1;fillColor=#ffff88;strokeColor=#36393d;" parent="vE3Ha4qgLlNr06Ze3YW5-8" vertex="1">
          <mxGeometry x="414" y="431" width="238" height="206" as="geometry">
            <mxRectangle y="349.99888888888887" width="110" height="62.22222222222222" as="alternateBounds" />
          </mxGeometry>
        </mxCell>
        <mxCell id="D6CuBKRdVGohJh1ABLe_-83" value="" style="shape=tableRow;horizontal=0;startSize=0;swimlaneHead=0;swimlaneBody=0;fillColor=none;collapsible=0;dropTarget=0;points=[[0,0.5],[1,0.5]];portConstraint=eastwest;top=0;left=0;right=0;bottom=0;" parent="D6CuBKRdVGohJh1ABLe_-79" vertex="1">
          <mxGeometry y="30" width="238" height="30" as="geometry" />
        </mxCell>
        <mxCell id="D6CuBKRdVGohJh1ABLe_-84" value="" style="shape=partialRectangle;connectable=0;fillColor=none;top=0;left=0;bottom=0;right=0;editable=1;overflow=hidden;whiteSpace=wrap;html=1;" parent="D6CuBKRdVGohJh1ABLe_-83" vertex="1">
          <mxGeometry width="35.02093505859375" height="30" as="geometry">
            <mxRectangle width="35.02093505859375" height="30" as="alternateBounds" />
          </mxGeometry>
        </mxCell>
        <mxCell id="D6CuBKRdVGohJh1ABLe_-85" value="taste&lt;span style=&quot;white-space: pre;&quot;&gt;&#x9;&lt;/span&gt;&lt;span style=&quot;white-space: pre;&quot;&gt;&#x9;&lt;/span&gt;&lt;span style=&quot;white-space: pre;&quot;&gt;&#x9;&lt;/span&gt;VARCHAR(255)" style="shape=partialRectangle;connectable=0;fillColor=none;top=0;left=0;bottom=0;right=0;align=left;spacingLeft=6;overflow=hidden;whiteSpace=wrap;html=1;" parent="D6CuBKRdVGohJh1ABLe_-83" vertex="1">
          <mxGeometry x="35.02093505859375" width="202.97906494140625" height="30" as="geometry">
            <mxRectangle width="202.97906494140625" height="30" as="alternateBounds" />
          </mxGeometry>
        </mxCell>
        <mxCell id="D6CuBKRdVGohJh1ABLe_-86" value="" style="shape=tableRow;horizontal=0;startSize=0;swimlaneHead=0;swimlaneBody=0;fillColor=none;collapsible=0;dropTarget=0;points=[[0,0.5],[1,0.5]];portConstraint=eastwest;top=0;left=0;right=0;bottom=0;" parent="D6CuBKRdVGohJh1ABLe_-79" vertex="1">
          <mxGeometry y="60" width="238" height="26" as="geometry" />
        </mxCell>
        <mxCell id="D6CuBKRdVGohJh1ABLe_-87" value="" style="shape=partialRectangle;connectable=0;fillColor=none;top=0;left=0;bottom=0;right=0;editable=1;overflow=hidden;whiteSpace=wrap;html=1;" parent="D6CuBKRdVGohJh1ABLe_-86" vertex="1">
          <mxGeometry width="35.02093505859375" height="26" as="geometry">
            <mxRectangle width="35.02093505859375" height="26" as="alternateBounds" />
          </mxGeometry>
        </mxCell>
        <mxCell id="D6CuBKRdVGohJh1ABLe_-88" value="activity_level&lt;span style=&quot;white-space: pre;&quot;&gt;&#x9;&lt;/span&gt;&lt;span style=&quot;white-space: pre;&quot;&gt;&#x9;&lt;/span&gt;VARCHAR(255)" style="shape=partialRectangle;connectable=0;fillColor=none;top=0;left=0;bottom=0;right=0;align=left;spacingLeft=6;overflow=hidden;whiteSpace=wrap;html=1;" parent="D6CuBKRdVGohJh1ABLe_-86" vertex="1">
          <mxGeometry x="35.02093505859375" width="202.97906494140625" height="26" as="geometry">
            <mxRectangle width="202.97906494140625" height="26" as="alternateBounds" />
          </mxGeometry>
        </mxCell>
        <mxCell id="wuyaVqw0lIHpQmKnbZ-E-47" value="" style="shape=tableRow;horizontal=0;startSize=0;swimlaneHead=0;swimlaneBody=0;fillColor=none;collapsible=0;dropTarget=0;points=[[0,0.5],[1,0.5]];portConstraint=eastwest;top=0;left=0;right=0;bottom=0;" parent="D6CuBKRdVGohJh1ABLe_-79" vertex="1">
          <mxGeometry y="86" width="238" height="30" as="geometry" />
        </mxCell>
        <mxCell id="wuyaVqw0lIHpQmKnbZ-E-48" value="" style="shape=partialRectangle;connectable=0;fillColor=none;top=0;left=0;bottom=0;right=0;editable=1;overflow=hidden;whiteSpace=wrap;html=1;" parent="wuyaVqw0lIHpQmKnbZ-E-47" vertex="1">
          <mxGeometry width="35.02093505859375" height="30" as="geometry">
            <mxRectangle width="35.02093505859375" height="30" as="alternateBounds" />
          </mxGeometry>
        </mxCell>
        <mxCell id="wuyaVqw0lIHpQmKnbZ-E-49" value="patient&lt;span style=&quot;white-space: pre;&quot;&gt;&#x9;&lt;/span&gt;&lt;span style=&quot;white-space: pre;&quot;&gt;&#x9;&lt;/span&gt;&lt;span style=&quot;white-space: pre;&quot;&gt;&#x9;&lt;/span&gt;VARCHAR(255)" style="shape=partialRectangle;connectable=0;fillColor=none;top=0;left=0;bottom=0;right=0;align=left;spacingLeft=6;overflow=hidden;whiteSpace=wrap;html=1;" parent="wuyaVqw0lIHpQmKnbZ-E-47" vertex="1">
          <mxGeometry x="35.02093505859375" width="202.97906494140625" height="30" as="geometry">
            <mxRectangle width="202.97906494140625" height="30" as="alternateBounds" />
          </mxGeometry>
        </mxCell>
        <mxCell id="D6CuBKRdVGohJh1ABLe_-89" value="" style="shape=tableRow;horizontal=0;startSize=0;swimlaneHead=0;swimlaneBody=0;fillColor=none;collapsible=0;dropTarget=0;points=[[0,0.5],[1,0.5]];portConstraint=eastwest;top=0;left=0;right=0;bottom=0;" parent="D6CuBKRdVGohJh1ABLe_-79" vertex="1">
          <mxGeometry y="116" width="238" height="30" as="geometry" />
        </mxCell>
        <mxCell id="D6CuBKRdVGohJh1ABLe_-90" value="" style="shape=partialRectangle;connectable=0;fillColor=none;top=0;left=0;bottom=0;right=0;editable=1;overflow=hidden;whiteSpace=wrap;html=1;" parent="D6CuBKRdVGohJh1ABLe_-89" vertex="1">
          <mxGeometry width="35.02093505859375" height="30" as="geometry">
            <mxRectangle width="35.02093505859375" height="30" as="alternateBounds" />
          </mxGeometry>
        </mxCell>
        <mxCell id="D6CuBKRdVGohJh1ABLe_-91" value="weight&lt;span style=&quot;white-space: pre;&quot;&gt;&#x9;&lt;/span&gt;&lt;span style=&quot;white-space: pre;&quot;&gt;&#x9;&lt;/span&gt;&lt;span style=&quot;white-space: pre;&quot;&gt;&#x9;&lt;/span&gt;TINYINT" style="shape=partialRectangle;connectable=0;fillColor=none;top=0;left=0;bottom=0;right=0;align=left;spacingLeft=6;overflow=hidden;whiteSpace=wrap;html=1;" parent="D6CuBKRdVGohJh1ABLe_-89" vertex="1">
          <mxGeometry x="35.02093505859375" width="202.97906494140625" height="30" as="geometry">
            <mxRectangle width="202.97906494140625" height="30" as="alternateBounds" />
          </mxGeometry>
        </mxCell>
        <mxCell id="t8a5REhLXbe7W7D2ZkRc-1" value="" style="shape=tableRow;horizontal=0;startSize=0;swimlaneHead=0;swimlaneBody=0;fillColor=none;collapsible=0;dropTarget=0;points=[[0,0.5],[1,0.5]];portConstraint=eastwest;top=0;left=0;right=0;bottom=0;" parent="D6CuBKRdVGohJh1ABLe_-79" vertex="1">
          <mxGeometry y="146" width="238" height="30" as="geometry" />
        </mxCell>
        <mxCell id="t8a5REhLXbe7W7D2ZkRc-2" value="" style="shape=partialRectangle;connectable=0;fillColor=none;top=0;left=0;bottom=0;right=0;editable=1;overflow=hidden;whiteSpace=wrap;html=1;" parent="t8a5REhLXbe7W7D2ZkRc-1" vertex="1">
          <mxGeometry width="35.02093505859375" height="30" as="geometry">
            <mxRectangle width="35.02093505859375" height="30" as="alternateBounds" />
          </mxGeometry>
        </mxCell>
        <mxCell id="t8a5REhLXbe7W7D2ZkRc-3" value="height&lt;span style=&quot;white-space: pre;&quot;&gt;&#x9;&lt;/span&gt;&lt;span style=&quot;white-space: pre;&quot;&gt;&#x9;&lt;/span&gt;&lt;span style=&quot;white-space: pre;&quot;&gt;&#x9;&lt;/span&gt;FLOAT" style="shape=partialRectangle;connectable=0;fillColor=none;top=0;left=0;bottom=0;right=0;align=left;spacingLeft=6;overflow=hidden;whiteSpace=wrap;html=1;" parent="t8a5REhLXbe7W7D2ZkRc-1" vertex="1">
          <mxGeometry x="35.02093505859375" width="202.97906494140625" height="30" as="geometry">
            <mxRectangle width="202.97906494140625" height="30" as="alternateBounds" />
          </mxGeometry>
        </mxCell>
        <mxCell id="wuyaVqw0lIHpQmKnbZ-E-50" value="" style="shape=tableRow;horizontal=0;startSize=0;swimlaneHead=0;swimlaneBody=0;fillColor=none;collapsible=0;dropTarget=0;points=[[0,0.5],[1,0.5]];portConstraint=eastwest;top=0;left=0;right=0;bottom=0;" parent="D6CuBKRdVGohJh1ABLe_-79" vertex="1">
          <mxGeometry y="176" width="238" height="30" as="geometry" />
        </mxCell>
        <mxCell id="wuyaVqw0lIHpQmKnbZ-E-51" value="" style="shape=partialRectangle;connectable=0;fillColor=none;top=0;left=0;bottom=0;right=0;editable=1;overflow=hidden;whiteSpace=wrap;html=1;" parent="wuyaVqw0lIHpQmKnbZ-E-50" vertex="1">
          <mxGeometry width="35.02093505859375" height="30" as="geometry">
            <mxRectangle width="35.02093505859375" height="30" as="alternateBounds" />
          </mxGeometry>
        </mxCell>
        <mxCell id="wuyaVqw0lIHpQmKnbZ-E-52" value="desired_health&lt;span style=&quot;white-space: pre;&quot;&gt;&#x9;&lt;/span&gt;VARCHAR(255)" style="shape=partialRectangle;connectable=0;fillColor=none;top=0;left=0;bottom=0;right=0;align=left;spacingLeft=6;overflow=hidden;whiteSpace=wrap;html=1;" parent="wuyaVqw0lIHpQmKnbZ-E-50" vertex="1">
          <mxGeometry x="35.02093505859375" width="202.97906494140625" height="30" as="geometry">
            <mxRectangle width="202.97906494140625" height="30" as="alternateBounds" />
          </mxGeometry>
        </mxCell>
        <mxCell id="wuyaVqw0lIHpQmKnbZ-E-17" value="Address" style="shape=table;startSize=30;container=1;collapsible=1;childLayout=tableLayout;fixedRows=1;rowLines=0;fontStyle=1;align=center;resizeLast=1;html=1;fillColor=#ffff88;strokeColor=#36393d;" parent="vE3Ha4qgLlNr06Ze3YW5-8" vertex="1">
          <mxGeometry x="419" y="806" width="235" height="210" as="geometry" />
        </mxCell>
        <mxCell id="wuyaVqw0lIHpQmKnbZ-E-18" value="" style="shape=tableRow;horizontal=0;startSize=0;swimlaneHead=0;swimlaneBody=0;fillColor=none;collapsible=0;dropTarget=0;points=[[0,0.5],[1,0.5]];portConstraint=eastwest;top=0;left=0;right=0;bottom=1;" parent="wuyaVqw0lIHpQmKnbZ-E-17" vertex="1">
          <mxGeometry y="30" width="235" height="30" as="geometry" />
        </mxCell>
        <mxCell id="wuyaVqw0lIHpQmKnbZ-E-19" value="PK" style="shape=partialRectangle;connectable=0;fillColor=none;top=0;left=0;bottom=0;right=0;fontStyle=1;overflow=hidden;whiteSpace=wrap;html=1;" parent="wuyaVqw0lIHpQmKnbZ-E-18" vertex="1">
          <mxGeometry width="30" height="30" as="geometry">
            <mxRectangle width="30" height="30" as="alternateBounds" />
          </mxGeometry>
        </mxCell>
        <mxCell id="wuyaVqw0lIHpQmKnbZ-E-20" value="address_id&lt;span style=&quot;white-space: pre;&quot;&gt;&#x9;&lt;/span&gt;&lt;span style=&quot;white-space: pre;&quot;&gt;&#x9;&lt;/span&gt;INT" style="shape=partialRectangle;connectable=0;fillColor=none;top=0;left=0;bottom=0;right=0;align=left;spacingLeft=6;fontStyle=5;overflow=hidden;whiteSpace=wrap;html=1;" parent="wuyaVqw0lIHpQmKnbZ-E-18" vertex="1">
          <mxGeometry x="30" width="205" height="30" as="geometry">
            <mxRectangle width="205" height="30" as="alternateBounds" />
          </mxGeometry>
        </mxCell>
        <mxCell id="wuyaVqw0lIHpQmKnbZ-E-21" value="" style="shape=tableRow;horizontal=0;startSize=0;swimlaneHead=0;swimlaneBody=0;fillColor=none;collapsible=0;dropTarget=0;points=[[0,0.5],[1,0.5]];portConstraint=eastwest;top=0;left=0;right=0;bottom=0;" parent="wuyaVqw0lIHpQmKnbZ-E-17" vertex="1">
          <mxGeometry y="60" width="235" height="30" as="geometry" />
        </mxCell>
        <mxCell id="wuyaVqw0lIHpQmKnbZ-E-22" value="" style="shape=partialRectangle;connectable=0;fillColor=none;top=0;left=0;bottom=0;right=0;editable=1;overflow=hidden;whiteSpace=wrap;html=1;" parent="wuyaVqw0lIHpQmKnbZ-E-21" vertex="1">
          <mxGeometry width="30" height="30" as="geometry">
            <mxRectangle width="30" height="30" as="alternateBounds" />
          </mxGeometry>
        </mxCell>
        <mxCell id="wuyaVqw0lIHpQmKnbZ-E-23" value="country&lt;span style=&quot;white-space: pre;&quot;&gt;&#x9;&lt;/span&gt;&lt;span style=&quot;white-space: pre;&quot;&gt;&#x9;&lt;/span&gt;&lt;span style=&quot;white-space: pre;&quot;&gt;&#x9;&lt;/span&gt;VARCHAR(100)" style="shape=partialRectangle;connectable=0;fillColor=none;top=0;left=0;bottom=0;right=0;align=left;spacingLeft=6;overflow=hidden;whiteSpace=wrap;html=1;" parent="wuyaVqw0lIHpQmKnbZ-E-21" vertex="1">
          <mxGeometry x="30" width="205" height="30" as="geometry">
            <mxRectangle width="205" height="30" as="alternateBounds" />
          </mxGeometry>
        </mxCell>
        <mxCell id="wuyaVqw0lIHpQmKnbZ-E-24" value="" style="shape=tableRow;horizontal=0;startSize=0;swimlaneHead=0;swimlaneBody=0;fillColor=none;collapsible=0;dropTarget=0;points=[[0,0.5],[1,0.5]];portConstraint=eastwest;top=0;left=0;right=0;bottom=0;" parent="wuyaVqw0lIHpQmKnbZ-E-17" vertex="1">
          <mxGeometry y="90" width="235" height="30" as="geometry" />
        </mxCell>
        <mxCell id="wuyaVqw0lIHpQmKnbZ-E-25" value="" style="shape=partialRectangle;connectable=0;fillColor=none;top=0;left=0;bottom=0;right=0;editable=1;overflow=hidden;whiteSpace=wrap;html=1;" parent="wuyaVqw0lIHpQmKnbZ-E-24" vertex="1">
          <mxGeometry width="30" height="30" as="geometry">
            <mxRectangle width="30" height="30" as="alternateBounds" />
          </mxGeometry>
        </mxCell>
        <mxCell id="wuyaVqw0lIHpQmKnbZ-E-26" value="city&lt;span style=&quot;white-space: pre;&quot;&gt;&#x9;&lt;/span&gt;&lt;span style=&quot;white-space: pre;&quot;&gt;&#x9;&lt;/span&gt;&lt;span style=&quot;white-space: pre;&quot;&gt;&#x9;&lt;/span&gt;&lt;span style=&quot;white-space: pre;&quot;&gt;&#x9;&lt;/span&gt;VARCHAR(100)" style="shape=partialRectangle;connectable=0;fillColor=none;top=0;left=0;bottom=0;right=0;align=left;spacingLeft=6;overflow=hidden;whiteSpace=wrap;html=1;" parent="wuyaVqw0lIHpQmKnbZ-E-24" vertex="1">
          <mxGeometry x="30" width="205" height="30" as="geometry">
            <mxRectangle width="205" height="30" as="alternateBounds" />
          </mxGeometry>
        </mxCell>
        <mxCell id="wuyaVqw0lIHpQmKnbZ-E-27" value="" style="shape=tableRow;horizontal=0;startSize=0;swimlaneHead=0;swimlaneBody=0;fillColor=none;collapsible=0;dropTarget=0;points=[[0,0.5],[1,0.5]];portConstraint=eastwest;top=0;left=0;right=0;bottom=0;" parent="wuyaVqw0lIHpQmKnbZ-E-17" vertex="1">
          <mxGeometry y="120" width="235" height="30" as="geometry" />
        </mxCell>
        <mxCell id="wuyaVqw0lIHpQmKnbZ-E-28" value="" style="shape=partialRectangle;connectable=0;fillColor=none;top=0;left=0;bottom=0;right=0;editable=1;overflow=hidden;whiteSpace=wrap;html=1;" parent="wuyaVqw0lIHpQmKnbZ-E-27" vertex="1">
          <mxGeometry width="30" height="30" as="geometry">
            <mxRectangle width="30" height="30" as="alternateBounds" />
          </mxGeometry>
        </mxCell>
        <mxCell id="wuyaVqw0lIHpQmKnbZ-E-29" value="district&lt;span style=&quot;white-space: pre;&quot;&gt;&#x9;&lt;/span&gt;&lt;span style=&quot;white-space: pre;&quot;&gt;&#x9;&lt;/span&gt;&lt;span style=&quot;white-space: pre;&quot;&gt;&#x9;&lt;/span&gt;VARCHAR(100)" style="shape=partialRectangle;connectable=0;fillColor=none;top=0;left=0;bottom=0;right=0;align=left;spacingLeft=6;overflow=hidden;whiteSpace=wrap;html=1;" parent="wuyaVqw0lIHpQmKnbZ-E-27" vertex="1">
          <mxGeometry x="30" width="205" height="30" as="geometry">
            <mxRectangle width="205" height="30" as="alternateBounds" />
          </mxGeometry>
        </mxCell>
        <mxCell id="wuyaVqw0lIHpQmKnbZ-E-32" value="" style="shape=tableRow;horizontal=0;startSize=0;swimlaneHead=0;swimlaneBody=0;fillColor=none;collapsible=0;dropTarget=0;points=[[0,0.5],[1,0.5]];portConstraint=eastwest;top=0;left=0;right=0;bottom=0;" parent="wuyaVqw0lIHpQmKnbZ-E-17" vertex="1">
          <mxGeometry y="150" width="235" height="30" as="geometry" />
        </mxCell>
        <mxCell id="wuyaVqw0lIHpQmKnbZ-E-33" value="" style="shape=partialRectangle;connectable=0;fillColor=none;top=0;left=0;bottom=0;right=0;editable=1;overflow=hidden;whiteSpace=wrap;html=1;" parent="wuyaVqw0lIHpQmKnbZ-E-32" vertex="1">
          <mxGeometry width="30" height="30" as="geometry">
            <mxRectangle width="30" height="30" as="alternateBounds" />
          </mxGeometry>
        </mxCell>
        <mxCell id="wuyaVqw0lIHpQmKnbZ-E-34" value="street&lt;span style=&quot;white-space: pre;&quot;&gt;&#x9;&lt;/span&gt;&lt;span style=&quot;white-space: pre;&quot;&gt;&#x9;&lt;/span&gt;&lt;span style=&quot;white-space: pre;&quot;&gt;&#x9;&lt;/span&gt;VARCHAR(255)" style="shape=partialRectangle;connectable=0;fillColor=none;top=0;left=0;bottom=0;right=0;align=left;spacingLeft=6;overflow=hidden;whiteSpace=wrap;html=1;" parent="wuyaVqw0lIHpQmKnbZ-E-32" vertex="1">
          <mxGeometry x="30" width="205" height="30" as="geometry">
            <mxRectangle width="205" height="30" as="alternateBounds" />
          </mxGeometry>
        </mxCell>
        <mxCell id="wuyaVqw0lIHpQmKnbZ-E-35" value="" style="shape=tableRow;horizontal=0;startSize=0;swimlaneHead=0;swimlaneBody=0;fillColor=none;collapsible=0;dropTarget=0;points=[[0,0.5],[1,0.5]];portConstraint=eastwest;top=0;left=0;right=0;bottom=0;" parent="wuyaVqw0lIHpQmKnbZ-E-17" vertex="1">
          <mxGeometry y="180" width="235" height="30" as="geometry" />
        </mxCell>
        <mxCell id="wuyaVqw0lIHpQmKnbZ-E-36" value="" style="shape=partialRectangle;connectable=0;fillColor=none;top=0;left=0;bottom=0;right=0;editable=1;overflow=hidden;whiteSpace=wrap;html=1;" parent="wuyaVqw0lIHpQmKnbZ-E-35" vertex="1">
          <mxGeometry width="30" height="30" as="geometry">
            <mxRectangle width="30" height="30" as="alternateBounds" />
          </mxGeometry>
        </mxCell>
        <mxCell id="wuyaVqw0lIHpQmKnbZ-E-37" value="street_number&lt;span style=&quot;white-space: pre;&quot;&gt;&#x9;&lt;span style=&quot;white-space: pre;&quot;&gt;&#x9;&lt;/span&gt;VARCHAR(50)&lt;/span&gt;" style="shape=partialRectangle;connectable=0;fillColor=none;top=0;left=0;bottom=0;right=0;align=left;spacingLeft=6;overflow=hidden;whiteSpace=wrap;html=1;" parent="wuyaVqw0lIHpQmKnbZ-E-35" vertex="1">
          <mxGeometry x="30" width="205" height="30" as="geometry">
            <mxRectangle width="205" height="30" as="alternateBounds" />
          </mxGeometry>
        </mxCell>
        <mxCell id="wuyaVqw0lIHpQmKnbZ-E-43" value="" style="edgeStyle=orthogonalEdgeStyle;fontSize=12;html=1;endArrow=ERzeroToMany;startArrow=ERone;rounded=0;startFill=0;" parent="vE3Ha4qgLlNr06Ze3YW5-8" source="D6CuBKRdVGohJh1ABLe_-36" target="wuyaVqw0lIHpQmKnbZ-E-17" edge="1">
          <mxGeometry width="100" height="100" relative="1" as="geometry">
            <mxPoint x="969" y="317" as="sourcePoint" />
            <mxPoint x="478" y="746" as="targetPoint" />
            <Array as="points">
              <mxPoint x="373" y="285" />
              <mxPoint x="373" y="756" />
              <mxPoint x="536" y="756" />
            </Array>
          </mxGeometry>
        </mxCell>
        <mxCell id="D6CuBKRdVGohJh1ABLe_-92" value="Meal_Suggest" style="shape=table;startSize=30;container=1;collapsible=1;childLayout=tableLayout;fixedRows=1;rowLines=0;fontStyle=1;align=center;resizeLast=1;html=1;fillColor=#1ba1e2;strokeColor=#006EAF;fontColor=#ffffff;" parent="1" vertex="1">
          <mxGeometry x="886" y="339" width="180" height="180" as="geometry">
            <mxRectangle x="427" y="520" width="114" height="62.22" as="alternateBounds" />
          </mxGeometry>
        </mxCell>
        <mxCell id="D6CuBKRdVGohJh1ABLe_-93" value="" style="shape=tableRow;horizontal=0;startSize=0;swimlaneHead=0;swimlaneBody=0;fillColor=none;collapsible=0;dropTarget=0;points=[[0,0.5],[1,0.5]];portConstraint=eastwest;top=0;left=0;right=0;bottom=1;" parent="D6CuBKRdVGohJh1ABLe_-92" vertex="1">
          <mxGeometry y="30" width="180" height="30" as="geometry" />
        </mxCell>
        <mxCell id="D6CuBKRdVGohJh1ABLe_-94" value="PK" style="shape=partialRectangle;connectable=0;fillColor=none;top=0;left=0;bottom=0;right=0;fontStyle=1;overflow=hidden;whiteSpace=wrap;html=1;" parent="D6CuBKRdVGohJh1ABLe_-93" vertex="1">
          <mxGeometry width="35.09122140066995" height="30" as="geometry">
            <mxRectangle width="35.09122140066995" height="30" as="alternateBounds" />
          </mxGeometry>
        </mxCell>
        <mxCell id="D6CuBKRdVGohJh1ABLe_-95" value="suggest_id" style="shape=partialRectangle;connectable=0;fillColor=none;top=0;left=0;bottom=0;right=0;align=left;spacingLeft=6;fontStyle=5;overflow=hidden;whiteSpace=wrap;html=1;" parent="D6CuBKRdVGohJh1ABLe_-93" vertex="1">
          <mxGeometry x="35.09122140066995" width="144.90877859933005" height="30" as="geometry">
            <mxRectangle width="144.90877859933005" height="30" as="alternateBounds" />
          </mxGeometry>
        </mxCell>
        <mxCell id="wuyaVqw0lIHpQmKnbZ-E-63" value="" style="shape=tableRow;horizontal=0;startSize=0;swimlaneHead=0;swimlaneBody=0;fillColor=none;collapsible=0;dropTarget=0;points=[[0,0.5],[1,0.5]];portConstraint=eastwest;top=0;left=0;right=0;bottom=0;" parent="D6CuBKRdVGohJh1ABLe_-92" vertex="1">
          <mxGeometry y="60" width="180" height="30" as="geometry" />
        </mxCell>
        <mxCell id="wuyaVqw0lIHpQmKnbZ-E-64" value="FK" style="shape=partialRectangle;connectable=0;fillColor=none;top=0;left=0;bottom=0;right=0;editable=1;overflow=hidden;whiteSpace=wrap;html=1;" parent="wuyaVqw0lIHpQmKnbZ-E-63" vertex="1">
          <mxGeometry width="35.09122140066995" height="30" as="geometry">
            <mxRectangle width="35.09122140066995" height="30" as="alternateBounds" />
          </mxGeometry>
        </mxCell>
        <mxCell id="wuyaVqw0lIHpQmKnbZ-E-65" value="meal_id" style="shape=partialRectangle;connectable=0;fillColor=none;top=0;left=0;bottom=0;right=0;align=left;spacingLeft=6;overflow=hidden;whiteSpace=wrap;html=1;" parent="wuyaVqw0lIHpQmKnbZ-E-63" vertex="1">
          <mxGeometry x="35.09122140066995" width="144.90877859933005" height="30" as="geometry">
            <mxRectangle width="144.90877859933005" height="30" as="alternateBounds" />
          </mxGeometry>
        </mxCell>
        <mxCell id="D6CuBKRdVGohJh1ABLe_-96" value="" style="shape=tableRow;horizontal=0;startSize=0;swimlaneHead=0;swimlaneBody=0;fillColor=none;collapsible=0;dropTarget=0;points=[[0,0.5],[1,0.5]];portConstraint=eastwest;top=0;left=0;right=0;bottom=0;" parent="D6CuBKRdVGohJh1ABLe_-92" vertex="1">
          <mxGeometry y="90" width="180" height="30" as="geometry" />
        </mxCell>
        <mxCell id="D6CuBKRdVGohJh1ABLe_-97" value="FK" style="shape=partialRectangle;connectable=0;fillColor=none;top=0;left=0;bottom=0;right=0;editable=1;overflow=hidden;whiteSpace=wrap;html=1;" parent="D6CuBKRdVGohJh1ABLe_-96" vertex="1">
          <mxGeometry width="35.09122140066995" height="30" as="geometry">
            <mxRectangle width="35.09122140066995" height="30" as="alternateBounds" />
          </mxGeometry>
        </mxCell>
        <mxCell id="D6CuBKRdVGohJh1ABLe_-98" value="user_id" style="shape=partialRectangle;connectable=0;fillColor=none;top=0;left=0;bottom=0;right=0;align=left;spacingLeft=6;overflow=hidden;whiteSpace=wrap;html=1;" parent="D6CuBKRdVGohJh1ABLe_-96" vertex="1">
          <mxGeometry x="35.09122140066995" width="144.90877859933005" height="30" as="geometry">
            <mxRectangle width="144.90877859933005" height="30" as="alternateBounds" />
          </mxGeometry>
        </mxCell>
        <mxCell id="D6CuBKRdVGohJh1ABLe_-99" value="" style="shape=tableRow;horizontal=0;startSize=0;swimlaneHead=0;swimlaneBody=0;fillColor=none;collapsible=0;dropTarget=0;points=[[0,0.5],[1,0.5]];portConstraint=eastwest;top=0;left=0;right=0;bottom=0;" parent="D6CuBKRdVGohJh1ABLe_-92" vertex="1">
          <mxGeometry y="120" width="180" height="30" as="geometry" />
        </mxCell>
        <mxCell id="D6CuBKRdVGohJh1ABLe_-100" value="FK" style="shape=partialRectangle;connectable=0;fillColor=none;top=0;left=0;bottom=0;right=0;editable=1;overflow=hidden;whiteSpace=wrap;html=1;" parent="D6CuBKRdVGohJh1ABLe_-99" vertex="1">
          <mxGeometry width="35.09122140066995" height="30" as="geometry">
            <mxRectangle width="35.09122140066995" height="30" as="alternateBounds" />
          </mxGeometry>
        </mxCell>
        <mxCell id="D6CuBKRdVGohJh1ABLe_-101" value="suggest" style="shape=partialRectangle;connectable=0;fillColor=none;top=0;left=0;bottom=0;right=0;align=left;spacingLeft=6;overflow=hidden;whiteSpace=wrap;html=1;" parent="D6CuBKRdVGohJh1ABLe_-99" vertex="1">
          <mxGeometry x="35.09122140066995" width="144.90877859933005" height="30" as="geometry">
            <mxRectangle width="144.90877859933005" height="30" as="alternateBounds" />
          </mxGeometry>
        </mxCell>
        <mxCell id="D6CuBKRdVGohJh1ABLe_-102" value="" style="shape=tableRow;horizontal=0;startSize=0;swimlaneHead=0;swimlaneBody=0;fillColor=none;collapsible=0;dropTarget=0;points=[[0,0.5],[1,0.5]];portConstraint=eastwest;top=0;left=0;right=0;bottom=0;" parent="D6CuBKRdVGohJh1ABLe_-92" vertex="1">
          <mxGeometry y="150" width="180" height="30" as="geometry" />
        </mxCell>
        <mxCell id="D6CuBKRdVGohJh1ABLe_-103" value="" style="shape=partialRectangle;connectable=0;fillColor=none;top=0;left=0;bottom=0;right=0;editable=1;overflow=hidden;whiteSpace=wrap;html=1;" parent="D6CuBKRdVGohJh1ABLe_-102" vertex="1">
          <mxGeometry width="35.09122140066995" height="30" as="geometry">
            <mxRectangle width="35.09122140066995" height="30" as="alternateBounds" />
          </mxGeometry>
        </mxCell>
        <mxCell id="D6CuBKRdVGohJh1ABLe_-104" value="number_dish" style="shape=partialRectangle;connectable=0;fillColor=none;top=0;left=0;bottom=0;right=0;align=left;spacingLeft=6;overflow=hidden;whiteSpace=wrap;html=1;" parent="D6CuBKRdVGohJh1ABLe_-102" vertex="1">
          <mxGeometry x="35.09122140066995" width="144.90877859933005" height="30" as="geometry">
            <mxRectangle width="144.90877859933005" height="30" as="alternateBounds" />
          </mxGeometry>
        </mxCell>
        <mxCell id="wuyaVqw0lIHpQmKnbZ-E-66" value="" style="edgeStyle=orthogonalEdgeStyle;fontSize=12;html=1;endArrow=ERzeroToMany;startArrow=ERone;rounded=0;startFill=0;dashed=1;dashPattern=1 4;" parent="1" source="D6CuBKRdVGohJh1ABLe_-27" target="D6CuBKRdVGohJh1ABLe_-96" edge="1">
          <mxGeometry width="100" height="100" relative="1" as="geometry">
            <mxPoint x="431" y="339" as="sourcePoint" />
            <mxPoint x="864" y="452" as="targetPoint" />
            <Array as="points">
              <mxPoint x="-501" y="116" />
              <mxPoint x="-501" y="442" />
            </Array>
          </mxGeometry>
        </mxCell>
        <mxCell id="t8a5REhLXbe7W7D2ZkRc-6" value="" style="endArrow=ERone;html=1;rounded=0;edgeStyle=orthogonalEdgeStyle;startArrow=ERone;startFill=0;endFill=0;dashed=1;dashPattern=1 4;" parent="1" source="D6CuBKRdVGohJh1ABLe_-79" target="D6CuBKRdVGohJh1ABLe_-99" edge="1">
          <mxGeometry width="50" height="50" relative="1" as="geometry">
            <mxPoint x="357" y="624" as="sourcePoint" />
            <mxPoint x="811" y="486" as="targetPoint" />
            <Array as="points">
              <mxPoint x="-135" y="556" />
              <mxPoint x="-135" y="467" />
            </Array>
          </mxGeometry>
        </mxCell>
        <mxCell id="t8a5REhLXbe7W7D2ZkRc-7" value="" style="edgeStyle=orthogonalEdgeStyle;fontSize=12;html=1;endArrow=ERoneToMany;endFill=0;rounded=0;startArrow=ERone;startFill=0;dashed=1;dashPattern=1 4;" parent="1" source="wuyaVqw0lIHpQmKnbZ-E-63" target="D6CuBKRdVGohJh1ABLe_-39" edge="1">
          <mxGeometry width="100" height="100" relative="1" as="geometry">
            <mxPoint x="252" y="503" as="sourcePoint" />
            <mxPoint x="352" y="403" as="targetPoint" />
            <Array as="points">
              <mxPoint x="987" y="407" />
              <mxPoint x="987" y="242" />
            </Array>
          </mxGeometry>
        </mxCell>
        <mxCell id="t8a5REhLXbe7W7D2ZkRc-35" value="" style="edgeStyle=orthogonalEdgeStyle;fontSize=12;html=1;endArrow=ERzeroToMany;endFill=1;rounded=0;startArrow=ERone;startFill=0;" parent="1" source="D6CuBKRdVGohJh1ABLe_-27" target="7tlb6O7nKomQZ_N-_NIy-19" edge="1">
          <mxGeometry width="100" height="100" relative="1" as="geometry">
            <mxPoint x="336" y="360" as="sourcePoint" />
            <mxPoint x="351" y="222" as="targetPoint" />
            <Array as="points">
              <mxPoint x="44" y="113" />
              <mxPoint x="44" y="143" />
            </Array>
          </mxGeometry>
        </mxCell>
        <mxCell id="7tlb6O7nKomQZ_N-_NIy-30" style="edgeStyle=orthogonalEdgeStyle;rounded=0;orthogonalLoop=1;jettySize=auto;html=1;startArrow=ERone;startFill=0;endArrow=ERone;endFill=0;" parent="1" source="mBsPnQfpfEU12FAxFHIT-58" target="wuyaVqw0lIHpQmKnbZ-E-17" edge="1">
          <mxGeometry relative="1" as="geometry">
            <Array as="points">
              <mxPoint x="-121" y="688" />
              <mxPoint x="-121" y="886" />
            </Array>
            <mxPoint x="302" y="717" as="sourcePoint" />
            <mxPoint x="-31" y="886" as="targetPoint" />
          </mxGeometry>
        </mxCell>
        <mxCell id="vE3Ha4qgLlNr06Ze3YW5-137" value="" style="group;fillColor=#d5e8d4;strokeColor=#82b366;container=0;" parent="1" vertex="1" connectable="0">
          <mxGeometry x="-676" y="-1168" width="783" height="1118" as="geometry" />
        </mxCell>
        <mxCell id="vE3Ha4qgLlNr06Ze3YW5-89" value="Blog" style="shape=table;startSize=30;container=1;collapsible=1;childLayout=tableLayout;fixedRows=1;rowLines=0;fontStyle=1;align=center;resizeLast=1;html=1;fillColor=#cdeb8b;strokeColor=#36393d;" parent="1" vertex="1">
          <mxGeometry x="-413" y="-1055" width="205" height="150" as="geometry" />
        </mxCell>
        <mxCell id="vE3Ha4qgLlNr06Ze3YW5-90" value="" style="shape=tableRow;horizontal=0;startSize=0;swimlaneHead=0;swimlaneBody=0;fillColor=none;collapsible=0;dropTarget=0;points=[[0,0.5],[1,0.5]];portConstraint=eastwest;top=0;left=0;right=0;bottom=1;" parent="vE3Ha4qgLlNr06Ze3YW5-89" vertex="1">
          <mxGeometry y="30" width="205" height="30" as="geometry" />
        </mxCell>
        <mxCell id="vE3Ha4qgLlNr06Ze3YW5-91" value="PK" style="shape=partialRectangle;connectable=0;fillColor=none;top=0;left=0;bottom=0;right=0;fontStyle=1;overflow=hidden;whiteSpace=wrap;html=1;" parent="vE3Ha4qgLlNr06Ze3YW5-90" vertex="1">
          <mxGeometry width="30" height="30" as="geometry">
            <mxRectangle width="30" height="30" as="alternateBounds" />
          </mxGeometry>
        </mxCell>
        <mxCell id="vE3Ha4qgLlNr06Ze3YW5-92" value="blog_id&lt;span style=&quot;white-space: pre;&quot;&gt;&#x9;&lt;/span&gt;&lt;span style=&quot;white-space: pre;&quot;&gt;&#x9;&lt;/span&gt;INT" style="shape=partialRectangle;connectable=0;fillColor=none;top=0;left=0;bottom=0;right=0;align=left;spacingLeft=6;fontStyle=5;overflow=hidden;whiteSpace=wrap;html=1;" parent="vE3Ha4qgLlNr06Ze3YW5-90" vertex="1">
          <mxGeometry x="30" width="175" height="30" as="geometry">
            <mxRectangle width="175" height="30" as="alternateBounds" />
          </mxGeometry>
        </mxCell>
        <mxCell id="vE3Ha4qgLlNr06Ze3YW5-118" value="" style="shape=tableRow;horizontal=0;startSize=0;swimlaneHead=0;swimlaneBody=0;fillColor=none;collapsible=0;dropTarget=0;points=[[0,0.5],[1,0.5]];portConstraint=eastwest;top=0;left=0;right=0;bottom=0;" parent="vE3Ha4qgLlNr06Ze3YW5-89" vertex="1">
          <mxGeometry y="60" width="205" height="30" as="geometry" />
        </mxCell>
        <mxCell id="vE3Ha4qgLlNr06Ze3YW5-119" value="" style="shape=partialRectangle;connectable=0;fillColor=none;top=0;left=0;bottom=0;right=0;editable=1;overflow=hidden;whiteSpace=wrap;html=1;" parent="vE3Ha4qgLlNr06Ze3YW5-118" vertex="1">
          <mxGeometry width="30" height="30" as="geometry">
            <mxRectangle width="30" height="30" as="alternateBounds" />
          </mxGeometry>
        </mxCell>
        <mxCell id="vE3Ha4qgLlNr06Ze3YW5-120" value="title&lt;span style=&quot;white-space: pre;&quot;&gt;&#x9;&lt;/span&gt;&lt;span style=&quot;white-space: pre;&quot;&gt;&#x9;&lt;/span&gt;&lt;span style=&quot;white-space: pre;&quot;&gt;&#x9;&lt;/span&gt;VARCHAR(255)" style="shape=partialRectangle;connectable=0;fillColor=none;top=0;left=0;bottom=0;right=0;align=left;spacingLeft=6;overflow=hidden;whiteSpace=wrap;html=1;" parent="vE3Ha4qgLlNr06Ze3YW5-118" vertex="1">
          <mxGeometry x="30" width="175" height="30" as="geometry">
            <mxRectangle width="175" height="30" as="alternateBounds" />
          </mxGeometry>
        </mxCell>
        <mxCell id="vE3Ha4qgLlNr06Ze3YW5-134" value="" style="shape=tableRow;horizontal=0;startSize=0;swimlaneHead=0;swimlaneBody=0;fillColor=none;collapsible=0;dropTarget=0;points=[[0,0.5],[1,0.5]];portConstraint=eastwest;top=0;left=0;right=0;bottom=0;" parent="vE3Ha4qgLlNr06Ze3YW5-89" vertex="1">
          <mxGeometry y="90" width="205" height="30" as="geometry" />
        </mxCell>
        <mxCell id="vE3Ha4qgLlNr06Ze3YW5-135" value="" style="shape=partialRectangle;connectable=0;fillColor=none;top=0;left=0;bottom=0;right=0;editable=1;overflow=hidden;whiteSpace=wrap;html=1;" parent="vE3Ha4qgLlNr06Ze3YW5-134" vertex="1">
          <mxGeometry width="30" height="30" as="geometry">
            <mxRectangle width="30" height="30" as="alternateBounds" />
          </mxGeometry>
        </mxCell>
        <mxCell id="vE3Ha4qgLlNr06Ze3YW5-136" value="content&lt;span style=&quot;white-space: pre;&quot;&gt;&#x9;&lt;/span&gt;&lt;span style=&quot;white-space: pre;&quot;&gt;&#x9;&lt;/span&gt;TEXT" style="shape=partialRectangle;connectable=0;fillColor=none;top=0;left=0;bottom=0;right=0;align=left;spacingLeft=6;overflow=hidden;whiteSpace=wrap;html=1;" parent="vE3Ha4qgLlNr06Ze3YW5-134" vertex="1">
          <mxGeometry x="30" width="175" height="30" as="geometry">
            <mxRectangle width="175" height="30" as="alternateBounds" />
          </mxGeometry>
        </mxCell>
        <mxCell id="vE3Ha4qgLlNr06Ze3YW5-93" value="" style="shape=tableRow;horizontal=0;startSize=0;swimlaneHead=0;swimlaneBody=0;fillColor=none;collapsible=0;dropTarget=0;points=[[0,0.5],[1,0.5]];portConstraint=eastwest;top=0;left=0;right=0;bottom=0;" parent="vE3Ha4qgLlNr06Ze3YW5-89" vertex="1">
          <mxGeometry y="120" width="205" height="30" as="geometry" />
        </mxCell>
        <mxCell id="vE3Ha4qgLlNr06Ze3YW5-94" value="FK" style="shape=partialRectangle;connectable=0;fillColor=none;top=0;left=0;bottom=0;right=0;editable=1;overflow=hidden;whiteSpace=wrap;html=1;" parent="vE3Ha4qgLlNr06Ze3YW5-93" vertex="1">
          <mxGeometry width="30" height="30" as="geometry">
            <mxRectangle width="30" height="30" as="alternateBounds" />
          </mxGeometry>
        </mxCell>
        <mxCell id="vE3Ha4qgLlNr06Ze3YW5-95" value="content_id&lt;span style=&quot;white-space: pre;&quot;&gt;&#x9;&lt;/span&gt;INT" style="shape=partialRectangle;connectable=0;fillColor=none;top=0;left=0;bottom=0;right=0;align=left;spacingLeft=6;overflow=hidden;whiteSpace=wrap;html=1;" parent="vE3Ha4qgLlNr06Ze3YW5-93" vertex="1">
          <mxGeometry x="30" width="175" height="30" as="geometry">
            <mxRectangle width="175" height="30" as="alternateBounds" />
          </mxGeometry>
        </mxCell>
        <mxCell id="vE3Ha4qgLlNr06Ze3YW5-10" value="Contents" style="shape=table;startSize=30;container=1;collapsible=1;childLayout=tableLayout;fixedRows=1;rowLines=0;fontStyle=1;align=center;resizeLast=1;html=1;fillColor=#cdeb8b;strokeColor=#36393d;" parent="1" vertex="1">
          <mxGeometry x="-413" y="-750" width="208" height="180" as="geometry" />
        </mxCell>
        <mxCell id="vE3Ha4qgLlNr06Ze3YW5-11" value="" style="shape=tableRow;horizontal=0;startSize=0;swimlaneHead=0;swimlaneBody=0;fillColor=none;collapsible=0;dropTarget=0;points=[[0,0.5],[1,0.5]];portConstraint=eastwest;top=0;left=0;right=0;bottom=1;" parent="vE3Ha4qgLlNr06Ze3YW5-10" vertex="1">
          <mxGeometry y="30" width="208" height="30" as="geometry" />
        </mxCell>
        <mxCell id="vE3Ha4qgLlNr06Ze3YW5-12" value="PK" style="shape=partialRectangle;connectable=0;fillColor=none;top=0;left=0;bottom=0;right=0;fontStyle=1;overflow=hidden;whiteSpace=wrap;html=1;" parent="vE3Ha4qgLlNr06Ze3YW5-11" vertex="1">
          <mxGeometry width="30" height="30" as="geometry">
            <mxRectangle width="30" height="30" as="alternateBounds" />
          </mxGeometry>
        </mxCell>
        <mxCell id="vE3Ha4qgLlNr06Ze3YW5-13" value="content_id&lt;span style=&quot;white-space: pre;&quot;&gt;&#x9;&lt;/span&gt;INT" style="shape=partialRectangle;connectable=0;fillColor=none;top=0;left=0;bottom=0;right=0;align=left;spacingLeft=6;fontStyle=5;overflow=hidden;whiteSpace=wrap;html=1;" parent="vE3Ha4qgLlNr06Ze3YW5-11" vertex="1">
          <mxGeometry x="30" width="178" height="30" as="geometry">
            <mxRectangle width="178" height="30" as="alternateBounds" />
          </mxGeometry>
        </mxCell>
        <mxCell id="vE3Ha4qgLlNr06Ze3YW5-17" value="" style="shape=tableRow;horizontal=0;startSize=0;swimlaneHead=0;swimlaneBody=0;fillColor=none;collapsible=0;dropTarget=0;points=[[0,0.5],[1,0.5]];portConstraint=eastwest;top=0;left=0;right=0;bottom=0;" parent="vE3Ha4qgLlNr06Ze3YW5-10" vertex="1">
          <mxGeometry y="60" width="208" height="30" as="geometry" />
        </mxCell>
        <mxCell id="vE3Ha4qgLlNr06Ze3YW5-18" value="" style="shape=partialRectangle;connectable=0;fillColor=none;top=0;left=0;bottom=0;right=0;editable=1;overflow=hidden;whiteSpace=wrap;html=1;" parent="vE3Ha4qgLlNr06Ze3YW5-17" vertex="1">
          <mxGeometry width="30" height="30" as="geometry">
            <mxRectangle width="30" height="30" as="alternateBounds" />
          </mxGeometry>
        </mxCell>
        <mxCell id="vE3Ha4qgLlNr06Ze3YW5-19" value="author_id&lt;span style=&quot;white-space: pre;&quot;&gt;&#x9;&lt;/span&gt;&lt;span style=&quot;white-space: pre;&quot;&gt;&#x9;&lt;/span&gt;INT" style="shape=partialRectangle;connectable=0;fillColor=none;top=0;left=0;bottom=0;right=0;align=left;spacingLeft=6;overflow=hidden;whiteSpace=wrap;html=1;" parent="vE3Ha4qgLlNr06Ze3YW5-17" vertex="1">
          <mxGeometry x="30" width="178" height="30" as="geometry">
            <mxRectangle width="178" height="30" as="alternateBounds" />
          </mxGeometry>
        </mxCell>
        <mxCell id="vE3Ha4qgLlNr06Ze3YW5-26" value="" style="shape=tableRow;horizontal=0;startSize=0;swimlaneHead=0;swimlaneBody=0;fillColor=none;collapsible=0;dropTarget=0;points=[[0,0.5],[1,0.5]];portConstraint=eastwest;top=0;left=0;right=0;bottom=0;" parent="vE3Ha4qgLlNr06Ze3YW5-10" vertex="1">
          <mxGeometry y="90" width="208" height="30" as="geometry" />
        </mxCell>
        <mxCell id="vE3Ha4qgLlNr06Ze3YW5-27" value="" style="shape=partialRectangle;connectable=0;fillColor=none;top=0;left=0;bottom=0;right=0;editable=1;overflow=hidden;whiteSpace=wrap;html=1;" parent="vE3Ha4qgLlNr06Ze3YW5-26" vertex="1">
          <mxGeometry width="30" height="30" as="geometry">
            <mxRectangle width="30" height="30" as="alternateBounds" />
          </mxGeometry>
        </mxCell>
        <mxCell id="vE3Ha4qgLlNr06Ze3YW5-28" value="url_image&amp;nbsp;&lt;span style=&quot;white-space: pre;&quot;&gt;&#x9;&lt;/span&gt;VARCHAR(255)" style="shape=partialRectangle;connectable=0;fillColor=none;top=0;left=0;bottom=0;right=0;align=left;spacingLeft=6;overflow=hidden;whiteSpace=wrap;html=1;" parent="vE3Ha4qgLlNr06Ze3YW5-26" vertex="1">
          <mxGeometry x="30" width="178" height="30" as="geometry">
            <mxRectangle width="178" height="30" as="alternateBounds" />
          </mxGeometry>
        </mxCell>
        <mxCell id="vE3Ha4qgLlNr06Ze3YW5-29" value="" style="shape=tableRow;horizontal=0;startSize=0;swimlaneHead=0;swimlaneBody=0;fillColor=none;collapsible=0;dropTarget=0;points=[[0,0.5],[1,0.5]];portConstraint=eastwest;top=0;left=0;right=0;bottom=0;" parent="vE3Ha4qgLlNr06Ze3YW5-10" vertex="1">
          <mxGeometry y="120" width="208" height="30" as="geometry" />
        </mxCell>
        <mxCell id="vE3Ha4qgLlNr06Ze3YW5-30" value="" style="shape=partialRectangle;connectable=0;fillColor=none;top=0;left=0;bottom=0;right=0;editable=1;overflow=hidden;whiteSpace=wrap;html=1;" parent="vE3Ha4qgLlNr06Ze3YW5-29" vertex="1">
          <mxGeometry width="30" height="30" as="geometry">
            <mxRectangle width="30" height="30" as="alternateBounds" />
          </mxGeometry>
        </mxCell>
        <mxCell id="vE3Ha4qgLlNr06Ze3YW5-31" value="url_video&amp;nbsp;&lt;span style=&quot;white-space: pre;&quot;&gt;&#x9;&lt;/span&gt;VARCHAR(255)" style="shape=partialRectangle;connectable=0;fillColor=none;top=0;left=0;bottom=0;right=0;align=left;spacingLeft=6;overflow=hidden;whiteSpace=wrap;html=1;" parent="vE3Ha4qgLlNr06Ze3YW5-29" vertex="1">
          <mxGeometry x="30" width="178" height="30" as="geometry">
            <mxRectangle width="178" height="30" as="alternateBounds" />
          </mxGeometry>
        </mxCell>
        <mxCell id="vE3Ha4qgLlNr06Ze3YW5-20" value="" style="shape=tableRow;horizontal=0;startSize=0;swimlaneHead=0;swimlaneBody=0;fillColor=none;collapsible=0;dropTarget=0;points=[[0,0.5],[1,0.5]];portConstraint=eastwest;top=0;left=0;right=0;bottom=0;" parent="vE3Ha4qgLlNr06Ze3YW5-10" vertex="1">
          <mxGeometry y="150" width="208" height="30" as="geometry" />
        </mxCell>
        <mxCell id="vE3Ha4qgLlNr06Ze3YW5-21" value="" style="shape=partialRectangle;connectable=0;fillColor=none;top=0;left=0;bottom=0;right=0;editable=1;overflow=hidden;whiteSpace=wrap;html=1;" parent="vE3Ha4qgLlNr06Ze3YW5-20" vertex="1">
          <mxGeometry width="30" height="30" as="geometry">
            <mxRectangle width="30" height="30" as="alternateBounds" />
          </mxGeometry>
        </mxCell>
        <mxCell id="vE3Ha4qgLlNr06Ze3YW5-22" value="created_at&lt;span style=&quot;white-space: pre;&quot;&gt;&#x9;&lt;/span&gt;TIMESTAMP" style="shape=partialRectangle;connectable=0;fillColor=none;top=0;left=0;bottom=0;right=0;align=left;spacingLeft=6;overflow=hidden;whiteSpace=wrap;html=1;" parent="vE3Ha4qgLlNr06Ze3YW5-20" vertex="1">
          <mxGeometry x="30" width="178" height="30" as="geometry">
            <mxRectangle width="178" height="30" as="alternateBounds" />
          </mxGeometry>
        </mxCell>
        <mxCell id="vE3Ha4qgLlNr06Ze3YW5-45" value="User_Interaction" style="shape=table;startSize=30;container=1;collapsible=1;childLayout=tableLayout;fixedRows=1;rowLines=0;fontStyle=1;align=center;resizeLast=1;html=1;fillColor=#cdeb8b;strokeColor=#36393d;" parent="1" vertex="1">
          <mxGeometry x="-413" y="-350" width="249" height="300" as="geometry" />
        </mxCell>
        <mxCell id="vE3Ha4qgLlNr06Ze3YW5-46" value="" style="shape=tableRow;horizontal=0;startSize=0;swimlaneHead=0;swimlaneBody=0;fillColor=none;collapsible=0;dropTarget=0;points=[[0,0.5],[1,0.5]];portConstraint=eastwest;top=0;left=0;right=0;bottom=1;" parent="vE3Ha4qgLlNr06Ze3YW5-45" vertex="1">
          <mxGeometry y="30" width="249" height="30" as="geometry" />
        </mxCell>
        <mxCell id="vE3Ha4qgLlNr06Ze3YW5-47" value="PK" style="shape=partialRectangle;connectable=0;fillColor=none;top=0;left=0;bottom=0;right=0;fontStyle=1;overflow=hidden;whiteSpace=wrap;html=1;" parent="vE3Ha4qgLlNr06Ze3YW5-46" vertex="1">
          <mxGeometry width="30" height="30" as="geometry">
            <mxRectangle width="30" height="30" as="alternateBounds" />
          </mxGeometry>
        </mxCell>
        <mxCell id="vE3Ha4qgLlNr06Ze3YW5-48" value="user_interaction_id&lt;span style=&quot;white-space: pre;&quot;&gt;&#x9;&lt;/span&gt;INT" style="shape=partialRectangle;connectable=0;fillColor=none;top=0;left=0;bottom=0;right=0;align=left;spacingLeft=6;fontStyle=5;overflow=hidden;whiteSpace=wrap;html=1;" parent="vE3Ha4qgLlNr06Ze3YW5-46" vertex="1">
          <mxGeometry x="30" width="219" height="30" as="geometry">
            <mxRectangle width="219" height="30" as="alternateBounds" />
          </mxGeometry>
        </mxCell>
        <mxCell id="vE3Ha4qgLlNr06Ze3YW5-49" value="" style="shape=tableRow;horizontal=0;startSize=0;swimlaneHead=0;swimlaneBody=0;fillColor=none;collapsible=0;dropTarget=0;points=[[0,0.5],[1,0.5]];portConstraint=eastwest;top=0;left=0;right=0;bottom=0;" parent="vE3Ha4qgLlNr06Ze3YW5-45" vertex="1">
          <mxGeometry y="60" width="249" height="30" as="geometry" />
        </mxCell>
        <mxCell id="vE3Ha4qgLlNr06Ze3YW5-50" value="FK" style="shape=partialRectangle;connectable=0;fillColor=none;top=0;left=0;bottom=0;right=0;editable=1;overflow=hidden;whiteSpace=wrap;html=1;" parent="vE3Ha4qgLlNr06Ze3YW5-49" vertex="1">
          <mxGeometry width="30" height="30" as="geometry">
            <mxRectangle width="30" height="30" as="alternateBounds" />
          </mxGeometry>
        </mxCell>
        <mxCell id="vE3Ha4qgLlNr06Ze3YW5-51" value="user_id&lt;span style=&quot;white-space: pre;&quot;&gt;&#x9;&lt;/span&gt;&lt;span style=&quot;white-space: pre;&quot;&gt;&#x9;&lt;/span&gt;&lt;span style=&quot;white-space: pre;&quot;&gt;&#x9;&lt;/span&gt;&lt;span style=&quot;white-space: pre;&quot;&gt;&#x9;&lt;/span&gt;INT" style="shape=partialRectangle;connectable=0;fillColor=none;top=0;left=0;bottom=0;right=0;align=left;spacingLeft=6;overflow=hidden;whiteSpace=wrap;html=1;" parent="vE3Ha4qgLlNr06Ze3YW5-49" vertex="1">
          <mxGeometry x="30" width="219" height="30" as="geometry">
            <mxRectangle width="219" height="30" as="alternateBounds" />
          </mxGeometry>
        </mxCell>
        <mxCell id="vE3Ha4qgLlNr06Ze3YW5-52" value="" style="shape=tableRow;horizontal=0;startSize=0;swimlaneHead=0;swimlaneBody=0;fillColor=none;collapsible=0;dropTarget=0;points=[[0,0.5],[1,0.5]];portConstraint=eastwest;top=0;left=0;right=0;bottom=0;" parent="vE3Ha4qgLlNr06Ze3YW5-45" vertex="1">
          <mxGeometry y="90" width="249" height="30" as="geometry" />
        </mxCell>
        <mxCell id="vE3Ha4qgLlNr06Ze3YW5-53" value="FK" style="shape=partialRectangle;connectable=0;fillColor=none;top=0;left=0;bottom=0;right=0;editable=1;overflow=hidden;whiteSpace=wrap;html=1;" parent="vE3Ha4qgLlNr06Ze3YW5-52" vertex="1">
          <mxGeometry width="30" height="30" as="geometry">
            <mxRectangle width="30" height="30" as="alternateBounds" />
          </mxGeometry>
        </mxCell>
        <mxCell id="vE3Ha4qgLlNr06Ze3YW5-54" value="content_id&lt;span style=&quot;white-space: pre;&quot;&gt;&#x9;&lt;/span&gt;&lt;span style=&quot;white-space: pre;&quot;&gt;&#x9;&lt;/span&gt;&lt;span style=&quot;white-space: pre;&quot;&gt;&#x9;&lt;/span&gt;INT&lt;span style=&quot;white-space: pre;&quot;&gt;&#x9;&lt;/span&gt;" style="shape=partialRectangle;connectable=0;fillColor=none;top=0;left=0;bottom=0;right=0;align=left;spacingLeft=6;overflow=hidden;whiteSpace=wrap;html=1;" parent="vE3Ha4qgLlNr06Ze3YW5-52" vertex="1">
          <mxGeometry x="30" width="219" height="30" as="geometry">
            <mxRectangle width="219" height="30" as="alternateBounds" />
          </mxGeometry>
        </mxCell>
        <mxCell id="vE3Ha4qgLlNr06Ze3YW5-80" value="" style="shape=tableRow;horizontal=0;startSize=0;swimlaneHead=0;swimlaneBody=0;fillColor=none;collapsible=0;dropTarget=0;points=[[0,0.5],[1,0.5]];portConstraint=eastwest;top=0;left=0;right=0;bottom=0;" parent="vE3Ha4qgLlNr06Ze3YW5-45" vertex="1">
          <mxGeometry y="120" width="249" height="30" as="geometry" />
        </mxCell>
        <mxCell id="vE3Ha4qgLlNr06Ze3YW5-81" value="" style="shape=partialRectangle;connectable=0;fillColor=none;top=0;left=0;bottom=0;right=0;editable=1;overflow=hidden;whiteSpace=wrap;html=1;" parent="vE3Ha4qgLlNr06Ze3YW5-80" vertex="1">
          <mxGeometry width="30" height="30" as="geometry">
            <mxRectangle width="30" height="30" as="alternateBounds" />
          </mxGeometry>
        </mxCell>
        <mxCell id="vE3Ha4qgLlNr06Ze3YW5-82" value="like&lt;span style=&quot;white-space: pre;&quot;&gt;&#x9;&lt;/span&gt;&lt;span style=&quot;white-space: pre;&quot;&gt;&#x9;&lt;/span&gt;&lt;span style=&quot;white-space: pre;&quot;&gt;&#x9;&lt;/span&gt;&lt;span style=&quot;white-space: pre;&quot;&gt;&#x9;&lt;/span&gt;&lt;span style=&quot;white-space: pre;&quot;&gt;&#x9;&lt;/span&gt;BOOL" style="shape=partialRectangle;connectable=0;fillColor=none;top=0;left=0;bottom=0;right=0;align=left;spacingLeft=6;overflow=hidden;whiteSpace=wrap;html=1;" parent="vE3Ha4qgLlNr06Ze3YW5-80" vertex="1">
          <mxGeometry x="30" width="219" height="30" as="geometry">
            <mxRectangle width="219" height="30" as="alternateBounds" />
          </mxGeometry>
        </mxCell>
        <mxCell id="vE3Ha4qgLlNr06Ze3YW5-83" value="" style="shape=tableRow;horizontal=0;startSize=0;swimlaneHead=0;swimlaneBody=0;fillColor=none;collapsible=0;dropTarget=0;points=[[0,0.5],[1,0.5]];portConstraint=eastwest;top=0;left=0;right=0;bottom=0;" parent="vE3Ha4qgLlNr06Ze3YW5-45" vertex="1">
          <mxGeometry y="150" width="249" height="30" as="geometry" />
        </mxCell>
        <mxCell id="vE3Ha4qgLlNr06Ze3YW5-84" value="" style="shape=partialRectangle;connectable=0;fillColor=none;top=0;left=0;bottom=0;right=0;editable=1;overflow=hidden;whiteSpace=wrap;html=1;" parent="vE3Ha4qgLlNr06Ze3YW5-83" vertex="1">
          <mxGeometry width="30" height="30" as="geometry">
            <mxRectangle width="30" height="30" as="alternateBounds" />
          </mxGeometry>
        </mxCell>
        <mxCell id="vE3Ha4qgLlNr06Ze3YW5-85" value="comment_id&lt;span style=&quot;white-space: pre;&quot;&gt;&#x9;&lt;/span&gt;&lt;span style=&quot;white-space: pre;&quot;&gt;&#x9;&lt;/span&gt;&lt;span style=&quot;white-space: pre;&quot;&gt;&#x9;&lt;/span&gt;INT&lt;span style=&quot;white-space: pre;&quot;&gt;&#x9;&lt;/span&gt;" style="shape=partialRectangle;connectable=0;fillColor=none;top=0;left=0;bottom=0;right=0;align=left;spacingLeft=6;overflow=hidden;whiteSpace=wrap;html=1;" parent="vE3Ha4qgLlNr06Ze3YW5-83" vertex="1">
          <mxGeometry x="30" width="219" height="30" as="geometry">
            <mxRectangle width="219" height="30" as="alternateBounds" />
          </mxGeometry>
        </mxCell>
        <mxCell id="vE3Ha4qgLlNr06Ze3YW5-102" value="" style="shape=tableRow;horizontal=0;startSize=0;swimlaneHead=0;swimlaneBody=0;fillColor=none;collapsible=0;dropTarget=0;points=[[0,0.5],[1,0.5]];portConstraint=eastwest;top=0;left=0;right=0;bottom=0;" parent="vE3Ha4qgLlNr06Ze3YW5-45" vertex="1">
          <mxGeometry y="180" width="249" height="30" as="geometry" />
        </mxCell>
        <mxCell id="vE3Ha4qgLlNr06Ze3YW5-103" value="" style="shape=partialRectangle;connectable=0;fillColor=none;top=0;left=0;bottom=0;right=0;editable=1;overflow=hidden;whiteSpace=wrap;html=1;" parent="vE3Ha4qgLlNr06Ze3YW5-102" vertex="1">
          <mxGeometry width="30" height="30" as="geometry">
            <mxRectangle width="30" height="30" as="alternateBounds" />
          </mxGeometry>
        </mxCell>
        <mxCell id="vE3Ha4qgLlNr06Ze3YW5-104" value="vote&lt;span style=&quot;white-space: pre;&quot;&gt;&#x9;&lt;/span&gt;&lt;span style=&quot;white-space: pre;&quot;&gt;&#x9;&lt;/span&gt;&lt;span style=&quot;white-space: pre;&quot;&gt;&#x9;&lt;/span&gt;&lt;span style=&quot;white-space: pre;&quot;&gt;&#x9;&lt;/span&gt;&lt;span style=&quot;white-space: pre;&quot;&gt;&#x9;&lt;/span&gt;TINYINT" style="shape=partialRectangle;connectable=0;fillColor=none;top=0;left=0;bottom=0;right=0;align=left;spacingLeft=6;overflow=hidden;whiteSpace=wrap;html=1;" parent="vE3Ha4qgLlNr06Ze3YW5-102" vertex="1">
          <mxGeometry x="30" width="219" height="30" as="geometry">
            <mxRectangle width="219" height="30" as="alternateBounds" />
          </mxGeometry>
        </mxCell>
        <mxCell id="vE3Ha4qgLlNr06Ze3YW5-86" value="" style="shape=tableRow;horizontal=0;startSize=0;swimlaneHead=0;swimlaneBody=0;fillColor=none;collapsible=0;dropTarget=0;points=[[0,0.5],[1,0.5]];portConstraint=eastwest;top=0;left=0;right=0;bottom=0;" parent="vE3Ha4qgLlNr06Ze3YW5-45" vertex="1">
          <mxGeometry y="210" width="249" height="30" as="geometry" />
        </mxCell>
        <mxCell id="vE3Ha4qgLlNr06Ze3YW5-87" value="" style="shape=partialRectangle;connectable=0;fillColor=none;top=0;left=0;bottom=0;right=0;editable=1;overflow=hidden;whiteSpace=wrap;html=1;" parent="vE3Ha4qgLlNr06Ze3YW5-86" vertex="1">
          <mxGeometry width="30" height="30" as="geometry">
            <mxRectangle width="30" height="30" as="alternateBounds" />
          </mxGeometry>
        </mxCell>
        <mxCell id="vE3Ha4qgLlNr06Ze3YW5-88" value="share&lt;span style=&quot;white-space: pre;&quot;&gt;&#x9;&lt;/span&gt;&lt;span style=&quot;white-space: pre;&quot;&gt;&#x9;&lt;/span&gt;&lt;span style=&quot;white-space: pre;&quot;&gt;&#x9;&lt;/span&gt;&lt;span style=&quot;white-space: pre;&quot;&gt;&#x9;&lt;/span&gt;INT" style="shape=partialRectangle;connectable=0;fillColor=none;top=0;left=0;bottom=0;right=0;align=left;spacingLeft=6;overflow=hidden;whiteSpace=wrap;html=1;" parent="vE3Ha4qgLlNr06Ze3YW5-86" vertex="1">
          <mxGeometry x="30" width="219" height="30" as="geometry">
            <mxRectangle width="219" height="30" as="alternateBounds" />
          </mxGeometry>
        </mxCell>
        <mxCell id="vE3Ha4qgLlNr06Ze3YW5-64" value="" style="shape=tableRow;horizontal=0;startSize=0;swimlaneHead=0;swimlaneBody=0;fillColor=none;collapsible=0;dropTarget=0;points=[[0,0.5],[1,0.5]];portConstraint=eastwest;top=0;left=0;right=0;bottom=0;" parent="vE3Ha4qgLlNr06Ze3YW5-45" vertex="1">
          <mxGeometry y="240" width="249" height="30" as="geometry" />
        </mxCell>
        <mxCell id="vE3Ha4qgLlNr06Ze3YW5-65" value="" style="shape=partialRectangle;connectable=0;fillColor=none;top=0;left=0;bottom=0;right=0;editable=1;overflow=hidden;whiteSpace=wrap;html=1;" parent="vE3Ha4qgLlNr06Ze3YW5-64" vertex="1">
          <mxGeometry width="30" height="30" as="geometry">
            <mxRectangle width="30" height="30" as="alternateBounds" />
          </mxGeometry>
        </mxCell>
        <mxCell id="vE3Ha4qgLlNr06Ze3YW5-66" value="save&lt;span style=&quot;white-space: pre;&quot;&gt;&#x9;&lt;/span&gt;&lt;span style=&quot;white-space: pre;&quot;&gt;&#x9;&lt;/span&gt;&lt;span style=&quot;white-space: pre;&quot;&gt;&#x9;&lt;/span&gt;&lt;span style=&quot;white-space: pre;&quot;&gt;&#x9;&lt;/span&gt;INT" style="shape=partialRectangle;connectable=0;fillColor=none;top=0;left=0;bottom=0;right=0;align=left;spacingLeft=6;overflow=hidden;whiteSpace=wrap;html=1;" parent="vE3Ha4qgLlNr06Ze3YW5-64" vertex="1">
          <mxGeometry x="30" width="219" height="30" as="geometry">
            <mxRectangle width="219" height="30" as="alternateBounds" />
          </mxGeometry>
        </mxCell>
        <mxCell id="vE3Ha4qgLlNr06Ze3YW5-55" value="" style="shape=tableRow;horizontal=0;startSize=0;swimlaneHead=0;swimlaneBody=0;fillColor=none;collapsible=0;dropTarget=0;points=[[0,0.5],[1,0.5]];portConstraint=eastwest;top=0;left=0;right=0;bottom=0;" parent="vE3Ha4qgLlNr06Ze3YW5-45" vertex="1">
          <mxGeometry y="270" width="249" height="30" as="geometry" />
        </mxCell>
        <mxCell id="vE3Ha4qgLlNr06Ze3YW5-56" value="" style="shape=partialRectangle;connectable=0;fillColor=none;top=0;left=0;bottom=0;right=0;editable=1;overflow=hidden;whiteSpace=wrap;html=1;" parent="vE3Ha4qgLlNr06Ze3YW5-55" vertex="1">
          <mxGeometry width="30" height="30" as="geometry">
            <mxRectangle width="30" height="30" as="alternateBounds" />
          </mxGeometry>
        </mxCell>
        <mxCell id="vE3Ha4qgLlNr06Ze3YW5-57" value="interaction_at&lt;span style=&quot;white-space: pre;&quot;&gt;&#x9;&lt;/span&gt;&lt;span style=&quot;white-space: pre;&quot;&gt;&#x9;&lt;/span&gt;&lt;span style=&quot;white-space: pre;&quot;&gt;&#x9;&lt;/span&gt;TIMESTAMP" style="shape=partialRectangle;connectable=0;fillColor=none;top=0;left=0;bottom=0;right=0;align=left;spacingLeft=6;overflow=hidden;whiteSpace=wrap;html=1;" parent="vE3Ha4qgLlNr06Ze3YW5-55" vertex="1">
          <mxGeometry x="30" width="219" height="30" as="geometry">
            <mxRectangle width="219" height="30" as="alternateBounds" />
          </mxGeometry>
        </mxCell>
        <mxCell id="vE3Ha4qgLlNr06Ze3YW5-138" value="" style="edgeStyle=orthogonalEdgeStyle;fontSize=12;html=1;endArrow=ERzeroToMany;endFill=1;rounded=0;startArrow=ERone;startFill=0;" parent="1" source="D6CuBKRdVGohJh1ABLe_-27" target="vE3Ha4qgLlNr06Ze3YW5-49" edge="1">
          <mxGeometry width="100" height="100" relative="1" as="geometry">
            <mxPoint x="-419" y="91" as="sourcePoint" />
            <mxPoint x="-319" y="-9" as="targetPoint" />
            <Array as="points">
              <mxPoint x="-433" y="99" />
              <mxPoint x="-433" y="-275" />
            </Array>
          </mxGeometry>
        </mxCell>
        <mxCell id="vE3Ha4qgLlNr06Ze3YW5-139" value="" style="edgeStyle=entityRelationEdgeStyle;fontSize=12;html=1;endArrow=ERoneToMany;endFill=0;rounded=0;startArrow=ERzeroToMany;startFill=0;" parent="1" source="vE3Ha4qgLlNr06Ze3YW5-52" target="vE3Ha4qgLlNr06Ze3YW5-11" edge="1">
          <mxGeometry width="100" height="100" relative="1" as="geometry">
            <mxPoint x="-247" y="-373" as="sourcePoint" />
            <mxPoint x="-147" y="-473" as="targetPoint" />
          </mxGeometry>
        </mxCell>
        <mxCell id="vE3Ha4qgLlNr06Ze3YW5-140" value="" style="endArrow=classic;html=1;rounded=0;" parent="1" source="vE3Ha4qgLlNr06Ze3YW5-89" target="vE3Ha4qgLlNr06Ze3YW5-10" edge="1">
          <mxGeometry width="50" height="50" relative="1" as="geometry">
            <mxPoint x="-241" y="-611" as="sourcePoint" />
            <mxPoint x="-169" y="-793" as="targetPoint" />
          </mxGeometry>
        </mxCell>
        <mxCell id="vE3Ha4qgLlNr06Ze3YW5-144" value="" style="edgeStyle=orthogonalEdgeStyle;fontSize=12;html=1;endArrow=ERzeroToMany;endFill=1;rounded=0;exitX=0;exitY=0.5;exitDx=0;exitDy=0;startArrow=ERone;startFill=0;" parent="1" source="vE3Ha4qgLlNr06Ze3YW5-93" target="vE3Ha4qgLlNr06Ze3YW5-11" edge="1">
          <mxGeometry width="100" height="100" relative="1" as="geometry">
            <mxPoint x="-266" y="-630" as="sourcePoint" />
            <mxPoint x="-166" y="-730" as="targetPoint" />
            <Array as="points">
              <mxPoint x="-445" y="-920" />
              <mxPoint x="-445" y="-705" />
            </Array>
          </mxGeometry>
        </mxCell>
        <mxCell id="vE3Ha4qgLlNr06Ze3YW5-149" value="" style="edgeStyle=orthogonalEdgeStyle;fontSize=12;html=1;endArrow=ERzeroToMany;endFill=1;rounded=0;startArrow=ERzeroToMany;startFill=0;" parent="1" source="vE3Ha4qgLlNr06Ze3YW5-93" target="mBsPnQfpfEU12FAxFHIT-19" edge="1">
          <mxGeometry width="100" height="100" relative="1" as="geometry">
            <mxPoint x="328" y="-669" as="sourcePoint" />
            <mxPoint x="444" y="-552" as="targetPoint" />
            <Array as="points">
              <mxPoint x="755" y="-920" />
              <mxPoint x="755" y="816" />
            </Array>
          </mxGeometry>
        </mxCell>
      </root>
    </mxGraphModel>
  </diagram>
</mxfile>
